<svg id="Layer_1" data-name="Layer 1" xmlns="http://www.w3.org/2000/svg" viewBox="0 0 1040 520"><defs><style>.cls-1{fill:#fcf0e3;}.cls-2{fill:#0670e3;}.cls-3{fill:#74cec6;}.cls-4,.cls-5{fill:#fff;}.cls-5{font-size:13.76px;font-family:Noway;}.cls-6{letter-spacing:-0.02em;}.cls-7{letter-spacing:-0.06em;}.cls-8{letter-spacing:0em;}.cls-9{letter-spacing:0em;}.cls-10{fill:#ffab96;}.cls-11{fill:#ffb54d;}</style></defs><rect class="cls-1" width="1040.07" height="521.56"/><path class="cls-2" d="M126.52,134.79h.54a4,4,0,0,1,4,4v43a4,4,0,0,0,4,4h8.23a4,4,0,0,0,3.76-2.63l16.62-45.73a4,4,0,0,1,3.75-2.63h0a4,4,0,0,1,3.75,5.37l-17.85,48.51a4.06,4.06,0,0,0,0,2.75l17.86,48.68a4,4,0,0,1-3.75,5.37h0a4,4,0,0,1-3.76-2.64L147,197a4,4,0,0,0-3.76-2.64h-8.23a4,4,0,0,0-4,4v43.16a4,4,0,0,1-4,4h-.54a4,4,0,0,1-4-4V138.78A4,4,0,0,1,126.52,134.79Z"/><path class="cls-2" d="M181.17,156.11A21.28,21.28,0,0,1,203,134.79c11.75.25,20.84,10.52,20.84,22.27v69.41c0,11.76-9.09,22-20.84,22.27a21.27,21.27,0,0,1-21.79-21.31Zm8.52,71.32A12.83,12.83,0,0,0,205.08,240c6-1.2,10.19-6.84,10.19-13v-70.4c0-6.16-4.15-11.8-10.19-13a12.82,12.82,0,0,0-15.39,12.54Z"/><path class="cls-2" d="M300.89,248.89h-2.6a4.26,4.26,0,0,1-4.19-3.48l-47.63-92.75h-.33v88.55a4.26,4.26,0,0,1-4.26,4.26h0a4.27,4.27,0,0,1-4.27-4.26V139.05a4.27,4.27,0,0,1,4.27-4.26h5a4.26,4.26,0,0,1,4.19,3.48l48.3,97.5h.32l45-97.51a4.27,4.27,0,0,1,4.19-3.47h5.15a4.27,4.27,0,0,1,4.27,4.26V241.21a4.27,4.27,0,0,1-4.27,4.26h0a4.26,4.26,0,0,1-4.26-4.26V151.84h-.33l-44.38,93.57A4.26,4.26,0,0,1,300.89,248.89Z"/><path class="cls-2" d="M120.12,380.94V278.8a4.27,4.27,0,0,1,4.27-4.27H173a23.14,23.14,0,0,1,23.07,23.08V311.1a23.11,23.11,0,0,1-9.54,18.6.11.11,0,0,0,0,.18,23.32,23.32,0,0,1,9.55,18.6v13.65A23.14,23.14,0,0,1,173,385.21H124.39A4.27,4.27,0,0,1,120.12,380.94ZM173,325.53A14.56,14.56,0,0,0,187.57,311V297.61A14.55,14.55,0,0,0,173,283.06H130.39a1.73,1.73,0,0,0-1.74,1.73v39a1.74,1.74,0,0,0,1.74,1.74Zm14.55,23.08A14.56,14.56,0,0,0,173,334.05H130.39a1.74,1.74,0,0,0-1.74,1.74V375a1.74,1.74,0,0,0,1.74,1.74H173a14.56,14.56,0,0,0,14.55-14.56Z"/><path class="cls-2" d="M210.7,295.85a21.26,21.26,0,0,1,21.78-21.31c11.76.25,20.85,10.52,20.85,22.27v6.81c0,12.86-9.09,23.13-20.85,23.38a21.27,21.27,0,0,1-21.78-21.31Zm8.52,9.84a12.81,12.81,0,0,0,15.39,12.53c6-1.19,10.19-6.83,10.19-13v-8.92c0-6.16-4.15-11.8-10.19-13a12.83,12.83,0,0,0-15.39,12.54Z"/><path class="cls-2" d="M210.7,354.05a21.27,21.27,0,0,1,21.78-21.31c11.76.25,20.85,10.52,20.85,22.28v6.81c0,12.85-9.09,23.13-20.85,23.38A21.28,21.28,0,0,1,210.7,363.9Zm8.52,9.85a12.82,12.82,0,0,0,15.39,12.53c6-1.2,10.19-6.84,10.19-13v-8.91c0-6.16-4.15-11.81-10.19-13a12.81,12.81,0,0,0-15.39,12.53Z"/><path class="cls-2" d="M299.16,283.06h-9.87a2.69,2.69,0,0,0-2.69,2.69v96.77a2.68,2.68,0,0,1-2.69,2.69H280.6a2.69,2.69,0,0,1-2.69-2.69V285.75a2.68,2.68,0,0,0-2.69-2.69h-10a2.69,2.69,0,0,1-2.69-2.69v-3.15a2.69,2.69,0,0,1,2.69-2.69h34a2.69,2.69,0,0,1,2.69,2.69v3.15A2.69,2.69,0,0,1,299.16,283.06Z"/><path class="cls-2" d="M314.48,274.53h6.18a1.12,1.12,0,0,1,1.06.76l15.16,46h.33l15.16-46a1.12,1.12,0,0,1,1.06-.76h6.18a1.11,1.11,0,0,1,1.05,1.46l-19.07,57.53-.28,1.77V384.1a1.11,1.11,0,0,1-1.11,1.11h-6.31a1.11,1.11,0,0,1-1.11-1.11V335.29l-.28-1.77L313.43,276A1.11,1.11,0,0,1,314.48,274.53Z"/><circle class="cls-3" cx="627.24" cy="416.3" r="4.35"/><circle class="cls-3" cx="643.9" cy="416.3" r="4.35"/><circle class="cls-3" cx="627.24" cy="431.35" r="4.35"/><circle class="cls-3" cx="643.9" cy="431.35" r="4.35"/><circle class="cls-3" cx="627.24" cy="446.4" r="4.35"/><circle class="cls-3" cx="643.9" cy="446.4" r="4.35"/><circle class="cls-3" cx="627.24" cy="461.46" r="4.35"/><circle class="cls-3" cx="643.9" cy="461.46" r="4.35"/><circle class="cls-3" cx="659.96" cy="416.3" r="4.35"/><circle class="cls-3" cx="676.62" cy="416.3" r="4.35"/><circle class="cls-3" cx="659.96" cy="431.35" r="4.35"/><circle class="cls-3" cx="676.62" cy="431.35" r="4.35"/><circle class="cls-3" cx="659.96" cy="446.4" r="4.35"/><circle class="cls-3" cx="676.62" cy="446.4" r="4.35"/><circle class="cls-3" cx="659.96" cy="461.46" r="4.35"/><circle class="cls-3" cx="676.62" cy="461.46" r="4.35"/><circle class="cls-3" cx="561.48" cy="416.3" r="4.35"/><circle class="cls-3" cx="578.15" cy="416.3" r="4.35"/><circle class="cls-3" cx="561.48" cy="431.35" r="4.35"/><circle class="cls-3" cx="578.15" cy="431.35" r="4.35"/><circle class="cls-3" cx="561.48" cy="446.4" r="4.35"/><circle class="cls-3" cx="578.15" cy="446.4" r="4.35"/><circle class="cls-3" cx="561.48" cy="461.46" r="4.35"/><circle class="cls-3" cx="578.15" cy="461.46" r="4.35"/><circle class="cls-3" cx="594.21" cy="416.3" r="4.35"/><circle class="cls-3" cx="610.87" cy="416.3" r="4.35"/><circle class="cls-3" cx="594.21" cy="431.35" r="4.35"/><circle class="cls-3" cx="610.87" cy="431.35" r="4.35"/><circle class="cls-3" cx="594.21" cy="446.4" r="4.35"/><circle class="cls-3" cx="610.87" cy="446.4" r="4.35"/><circle class="cls-3" cx="594.21" cy="461.46" r="4.35"/><circle class="cls-3" cx="610.87" cy="461.46" r="4.35"/><path class="cls-2" d="M847.05,157.4c41.21-52.58-79.7-163-156.16-57-39.51,54.79-83.07,38.51-128.22,35.48s-114.83,41.5-73,125.83,7,85.47,13.93,121.83,117.16,111.12,144,24.72,77.39-83.06,99-73.14c49.47,22.69,105.25-18.19,100.06-73.41C841.46,205.7,811.83,202.34,847.05,157.4Z"/><path class="cls-4" d="M536.45,197.51h.3a2.25,2.25,0,0,1,2.25,2.25V224a2.25,2.25,0,0,0,2.25,2.25h4.63a2.26,2.26,0,0,0,2.12-1.48L557.34,199a2.26,2.26,0,0,1,2.12-1.48h0a2.25,2.25,0,0,1,2.11,3l-10,27.29a2.23,2.23,0,0,0,0,1.55l10.05,27.39a2.25,2.25,0,0,1-2.11,3h0a2.24,2.24,0,0,1-2.11-1.48L548,232.48a2.24,2.24,0,0,0-2.11-1.48h-4.63a2.25,2.25,0,0,0-2.25,2.25v24.28a2.25,2.25,0,0,1-2.25,2.25h-.3a2.25,2.25,0,0,1-2.25-2.25V199.76A2.25,2.25,0,0,1,536.45,197.51Z"/><path class="cls-4" d="M567.2,209.5a12,12,0,0,1,12.25-12c6.62.14,11.73,5.92,11.73,12.53v39.05c0,6.62-5.11,12.39-11.73,12.53a12,12,0,0,1-12.25-12ZM572,249.63a7.21,7.21,0,0,0,8.66,7.05,7.36,7.36,0,0,0,5.74-7.31V209.76a7.37,7.37,0,0,0-5.74-7.31A7.22,7.22,0,0,0,572,209.5Z"/><path class="cls-4" d="M634.56,261.7h-1.47a2.41,2.41,0,0,1-2.36-1.95l-26.8-52.18h-.18v49.81a2.39,2.39,0,0,1-2.4,2.4h0a2.4,2.4,0,0,1-2.4-2.4V199.91a2.4,2.4,0,0,1,2.4-2.4h2.81a2.39,2.39,0,0,1,2.35,2l27.17,54.85h.19l25.34-54.86a2.39,2.39,0,0,1,2.35-2h2.9a2.39,2.39,0,0,1,2.4,2.4v57.47a2.39,2.39,0,0,1-2.4,2.4h0a2.39,2.39,0,0,1-2.39-2.4V207.1h-.19l-25,52.65A2.39,2.39,0,0,1,634.56,261.7Z"/><path class="cls-4" d="M676.18,257.38V199.91a2.4,2.4,0,0,1,2.4-2.4h27.36a13,13,0,0,1,13,13v7.59a13,13,0,0,1-5.37,10.47.06.06,0,0,0,0,.1,13.13,13.13,0,0,1,5.37,10.47v7.68a13,13,0,0,1-13,13H678.58A2.39,2.39,0,0,1,676.18,257.38Zm29.76-31.18a8.19,8.19,0,0,0,8.18-8.19V210.5a8.18,8.18,0,0,0-8.19-8.19H682a1,1,0,0,0-1,1v21.94a1,1,0,0,0,1,1Zm8.18,13a8.18,8.18,0,0,0-8.18-8.19H682a1,1,0,0,0-1,1v22a1,1,0,0,0,1,1h24a8.18,8.18,0,0,0,8.18-8.18Z"/><path class="cls-4" d="M727.14,209.5a12,12,0,0,1,12.25-12c6.62.14,11.73,5.92,11.73,12.54v3.83c0,7.23-5.11,13-11.73,13.15a12,12,0,0,1-12.25-12Zm4.79,5.54a7.21,7.21,0,0,0,8.66,7.05,7.36,7.36,0,0,0,5.73-7.31v-5a7.36,7.36,0,0,0-5.73-7.31,7.22,7.22,0,0,0-8.66,7.05Z"/><path class="cls-4" d="M727.14,242.25a12,12,0,0,1,12.25-12c6.62.14,11.73,5.92,11.73,12.53v3.83c0,7.24-5.11,13-11.73,13.16a12,12,0,0,1-12.25-12Zm4.79,5.54a7.21,7.21,0,0,0,8.66,7.05,7.36,7.36,0,0,0,5.73-7.31v-5a7.36,7.36,0,0,0-5.73-7.31,7.22,7.22,0,0,0-8.66,7.05Z"/><path class="cls-4" d="M776.91,202.31h-5.55a1.51,1.51,0,0,0-1.52,1.51v54.45a1.52,1.52,0,0,1-1.51,1.51h-1.86a1.52,1.52,0,0,1-1.52-1.51V203.82a1.51,1.51,0,0,0-1.51-1.51h-5.65a1.52,1.52,0,0,1-1.51-1.52V199a1.52,1.52,0,0,1,1.51-1.51h19.12a1.52,1.52,0,0,1,1.51,1.51v1.77A1.52,1.52,0,0,1,776.91,202.31Z"/><path class="cls-4" d="M785.53,197.51H789a.63.63,0,0,1,.6.43l8.53,25.86h.18l8.53-25.86a.63.63,0,0,1,.6-.43h3.48a.63.63,0,0,1,.59.82L800.78,230.7l-.16,1v27.47a.63.63,0,0,1-.63.62h-3.54a.63.63,0,0,1-.63-.62V231.69l-.16-1-10.73-32.37A.63.63,0,0,1,785.53,197.51Z"/><text class="cls-5" transform="translate(530.61 288.35)">GOOD FOR <tspan class="cls-6" x="64.25" y="0">Y</tspan><tspan x="71.73" y="0">OUR GU</tspan><tspan class="cls-7" x="117.83" y="0">T</tspan><tspan class="cls-8" x="124.64" y="0">, GOOD FOR </tspan><tspan class="cls-6" x="195.58" y="0">Y</tspan><tspan class="cls-9" x="203.05" y="0">OUR BUTT</tspan></text><path class="cls-10" d="M888.26,219.68c0,6.07-5.81,45.91-11.86,45.36-12.88-1.18-17.1-21.63-14.92-33.71,3.07-17.07,12.21-28.92,24.42-37.38C890.89,190.49,888.26,213.61,888.26,219.68Z"/><path class="cls-10" d="M904.2,375.56h0c-16.24,0-44.43-35.76-57.39-53.45-14.5-19.81,3.33-44.7,33.6-45.8.72,0,1.44,0,2.16,0h43.14c.72,0,1.44,0,2.15,0,30.24,1.1,48.07,25.95,33.63,45.76C948.57,339.78,920.47,375.56,904.2,375.56Z"/><path class="cls-10" d="M920.55,467c8-22.88,11.93-70.86-10.94-78.82s-63.93,27.12-71.89,50A43.85,43.85,0,0,0,920.55,467Z"/><path class="cls-10" d="M886.4,467c-8-22.88-11.93-70.86,10.94-78.82s63.93,27.12,71.89,50A43.85,43.85,0,0,1,886.4,467Z"/><path class="cls-10" d="M908.53,298.82h-8.79c-7.26,0-12.7-5-11.25-10.31l1.31-4.78a49.29,49.29,0,0,0,0-26.07l-1.31-4.78c-1.45-5.32,4-10.31,11.25-10.31h8.79c7.26,0,12.7,5,11.25,10.31h0a67.12,67.12,0,0,0,0,35.63h0C921.23,293.83,915.79,298.82,908.53,298.82Z"/><path class="cls-2" d="M930.82,311.65h-41.9a12.3,12.3,0,0,1-12.29-12.3V226.19c0-21.52,6-39,27.51-39h0a39,39,0,0,1,39,39v73.16A12.3,12.3,0,0,1,930.82,311.65Z"/><path class="cls-1" d="M958.9,420.84c-18.37-18-37.4.79-53.13,21.6a3,3,0,0,1-4.64.15c-16.77-19.67-35.88-40-52.24-22.77-11.13,11.69,22.45-36.29,54.58-36.29S970.41,432.15,958.9,420.84Z"/><path class="cls-11" d="M757.14,414a60,60,0,1,1-107-54.4"/><circle class="cls-3" cx="768.91" cy="29.48" r="4.35"/><circle class="cls-3" cx="785.57" cy="29.48" r="4.35"/><circle class="cls-3" cx="768.91" cy="44.53" r="4.35"/><circle class="cls-3" cx="785.57" cy="44.53" r="4.35"/><circle class="cls-3" cx="768.91" cy="59.58" r="4.35"/><circle class="cls-3" cx="785.57" cy="59.58" r="4.35"/><circle class="cls-3" cx="768.91" cy="74.64" r="4.35"/><circle class="cls-3" cx="785.57" cy="74.64" r="4.35"/><circle class="cls-3" cx="801.63" cy="29.48" r="4.35"/><circle class="cls-3" cx="818.3" cy="29.48" r="4.35"/><circle class="cls-3" cx="801.63" cy="44.53" r="4.35"/><circle class="cls-3" cx="818.3" cy="44.53" r="4.35"/><circle class="cls-3" cx="801.63" cy="59.58" r="4.35"/><circle class="cls-3" cx="818.3" cy="59.58" r="4.35"/><circle class="cls-3" cx="801.63" cy="74.64" r="4.35"/><circle class="cls-3" cx="818.3" cy="74.64" r="4.35"/><circle class="cls-3" cx="768.91" cy="90.29" r="4.35"/><circle class="cls-3" cx="785.57" cy="90.29" r="4.35"/><circle class="cls-3" cx="768.91" cy="105.34" r="4.35"/><circle class="cls-3" cx="785.57" cy="105.34" r="4.35"/><circle class="cls-3" cx="768.91" cy="120.39" r="4.35"/><circle class="cls-3" cx="785.57" cy="120.39" r="4.35"/><circle class="cls-3" cx="768.91" cy="135.44" r="4.35"/><circle class="cls-3" cx="785.57" cy="135.44" r="4.35"/><circle class="cls-3" cx="801.63" cy="90.29" r="4.35"/><circle class="cls-3" cx="818.3" cy="90.29" r="4.35"/><circle class="cls-3" cx="801.63" cy="105.34" r="4.35"/><circle class="cls-3" cx="818.3" cy="105.34" r="4.35"/><circle class="cls-3" cx="801.63" cy="120.39" r="4.35"/><circle class="cls-3" cx="818.3" cy="120.39" r="4.35"/><circle class="cls-3" cx="801.63" cy="135.44" r="4.35"/><circle class="cls-3" cx="818.3" cy="135.44" r="4.35"/></svg>