<svg id="Layer_1" data-name="Layer 1" xmlns="http://www.w3.org/2000/svg" xmlns:xlink="http://www.w3.org/1999/xlink" viewBox="0 0 1120 760"><defs><style>.cls-1{fill:none;}.cls-2{fill:#f8ca6e;}.cls-3{clip-path:url(#clip-path);}.cls-4{clip-path:url(#clip-path-2);}.cls-5{fill:#5e473b;}.cls-6{clip-path:url(#clip-path-3);}.cls-7{fill:#443027;}.cls-8{fill:#81301d;}.cls-9{clip-path:url(#clip-path-4);}.cls-10{clip-path:url(#clip-path-5);}.cls-11,.cls-161,.cls-86{fill:#fff;}.cls-11,.cls-86{stroke:#000;stroke-miterlimit:10;}.cls-11{stroke-width:0.65px;}.cls-12{fill:url(#linear-gradient);}.cls-13{fill:url(#linear-gradient-2);}.cls-14{fill:url(#linear-gradient-3);}.cls-15{fill:url(#linear-gradient-4);}.cls-16{fill:url(#linear-gradient-5);}.cls-17{fill:url(#linear-gradient-6);}.cls-18{fill:url(#linear-gradient-7);}.cls-19{fill:url(#linear-gradient-8);}.cls-20{fill:url(#linear-gradient-9);}.cls-21{fill:url(#linear-gradient-10);}.cls-22{fill:url(#linear-gradient-11);}.cls-23{fill:url(#linear-gradient-12);}.cls-24{fill:url(#linear-gradient-13);}.cls-25{fill:url(#linear-gradient-14);}.cls-26{fill:url(#linear-gradient-15);}.cls-27{fill:url(#linear-gradient-16);}.cls-28{fill:url(#linear-gradient-17);}.cls-29{fill:url(#linear-gradient-18);}.cls-30{fill:url(#linear-gradient-19);}.cls-31{fill:url(#linear-gradient-20);}.cls-32{fill:url(#linear-gradient-21);}.cls-33{fill:url(#linear-gradient-22);}.cls-34{fill:url(#linear-gradient-23);}.cls-35{fill:url(#linear-gradient-24);}.cls-36{fill:url(#linear-gradient-25);}.cls-37{fill:url(#linear-gradient-26);}.cls-38{fill:url(#linear-gradient-27);}.cls-39{fill:url(#linear-gradient-28);}.cls-40{fill:url(#linear-gradient-29);}.cls-41{fill:url(#linear-gradient-30);}.cls-42{fill:url(#linear-gradient-31);}.cls-43{fill:url(#linear-gradient-32);}.cls-44{fill:url(#linear-gradient-33);}.cls-45{fill:url(#linear-gradient-34);}.cls-46{fill:url(#linear-gradient-35);}.cls-47{fill:url(#linear-gradient-36);}.cls-48{fill:url(#linear-gradient-37);}.cls-49{fill:url(#linear-gradient-38);}.cls-50{fill:url(#linear-gradient-39);}.cls-51{fill:url(#linear-gradient-40);}.cls-52{fill:url(#linear-gradient-41);}.cls-53{fill:url(#linear-gradient-42);}.cls-54{fill:url(#linear-gradient-43);}.cls-55{fill:url(#linear-gradient-44);}.cls-56{fill:url(#linear-gradient-45);}.cls-57{fill:url(#linear-gradient-46);}.cls-58{fill:url(#linear-gradient-47);}.cls-59{fill:url(#linear-gradient-48);}.cls-60{fill:url(#linear-gradient-49);}.cls-61{fill:url(#linear-gradient-50);}.cls-62{fill:url(#linear-gradient-51);}.cls-63{fill:url(#linear-gradient-52);}.cls-64{fill:url(#linear-gradient-53);}.cls-65{fill:url(#linear-gradient-54);}.cls-66{fill:url(#linear-gradient-55);}.cls-67{fill:url(#linear-gradient-56);}.cls-68{fill:url(#linear-gradient-57);}.cls-69{fill:url(#linear-gradient-58);}.cls-70{fill:url(#linear-gradient-59);}.cls-71{fill:url(#linear-gradient-60);}.cls-72{fill:url(#linear-gradient-61);}.cls-73{fill:url(#linear-gradient-62);}.cls-74{fill:url(#linear-gradient-63);}.cls-75{fill:url(#linear-gradient-64);}.cls-76{fill:url(#linear-gradient-65);}.cls-77{fill:url(#linear-gradient-66);}.cls-78{fill:url(#linear-gradient-67);}.cls-79{fill:url(#linear-gradient-68);}.cls-80{fill:url(#linear-gradient-69);}.cls-81{fill:url(#linear-gradient-70);}.cls-82{fill:url(#linear-gradient-71);}.cls-83{fill:url(#linear-gradient-72);}.cls-84{fill:url(#linear-gradient-73);}.cls-85{clip-path:url(#clip-path-6);}.cls-86{stroke-width:0.6px;}.cls-87{fill:url(#linear-gradient-74);}.cls-88{fill:url(#linear-gradient-75);}.cls-89{fill:url(#linear-gradient-76);}.cls-90{fill:url(#linear-gradient-77);}.cls-91{fill:url(#linear-gradient-78);}.cls-92{fill:url(#linear-gradient-79);}.cls-93{fill:url(#linear-gradient-80);}.cls-94{fill:url(#linear-gradient-81);}.cls-95{fill:url(#linear-gradient-82);}.cls-96{fill:url(#linear-gradient-83);}.cls-97{fill:url(#linear-gradient-84);}.cls-98{fill:url(#linear-gradient-85);}.cls-99{fill:url(#linear-gradient-86);}.cls-100{fill:url(#linear-gradient-87);}.cls-101{fill:url(#linear-gradient-88);}.cls-102{fill:url(#linear-gradient-89);}.cls-103{fill:url(#linear-gradient-90);}.cls-104{fill:url(#linear-gradient-91);}.cls-105{fill:url(#linear-gradient-92);}.cls-106{fill:url(#linear-gradient-93);}.cls-107{fill:url(#linear-gradient-94);}.cls-108{fill:url(#linear-gradient-95);}.cls-109{fill:url(#linear-gradient-96);}.cls-110{fill:url(#linear-gradient-97);}.cls-111{fill:url(#linear-gradient-98);}.cls-112{fill:url(#linear-gradient-99);}.cls-113{fill:url(#linear-gradient-100);}.cls-114{fill:url(#linear-gradient-101);}.cls-115{fill:url(#linear-gradient-102);}.cls-116{fill:url(#linear-gradient-103);}.cls-117{fill:url(#linear-gradient-104);}.cls-118{fill:url(#linear-gradient-105);}.cls-119{fill:url(#linear-gradient-106);}.cls-120{fill:url(#linear-gradient-107);}.cls-121{fill:url(#linear-gradient-108);}.cls-122{fill:url(#linear-gradient-109);}.cls-123{fill:url(#linear-gradient-110);}.cls-124{fill:url(#linear-gradient-111);}.cls-125{fill:url(#linear-gradient-112);}.cls-126{fill:url(#linear-gradient-113);}.cls-127{fill:url(#linear-gradient-114);}.cls-128{fill:url(#linear-gradient-115);}.cls-129{fill:url(#linear-gradient-116);}.cls-130{fill:url(#linear-gradient-117);}.cls-131{fill:url(#linear-gradient-118);}.cls-132{fill:url(#linear-gradient-119);}.cls-133{fill:url(#linear-gradient-120);}.cls-134{fill:url(#linear-gradient-121);}.cls-135{fill:url(#linear-gradient-122);}.cls-136{fill:url(#linear-gradient-123);}.cls-137{fill:url(#linear-gradient-124);}.cls-138{fill:url(#linear-gradient-125);}.cls-139{fill:url(#linear-gradient-126);}.cls-140{fill:url(#linear-gradient-127);}.cls-141{fill:url(#linear-gradient-128);}.cls-142{fill:url(#linear-gradient-129);}.cls-143{fill:url(#linear-gradient-130);}.cls-144{fill:url(#linear-gradient-131);}.cls-145{fill:url(#linear-gradient-132);}.cls-146{fill:url(#linear-gradient-133);}.cls-147{fill:url(#linear-gradient-134);}.cls-148{fill:url(#linear-gradient-135);}.cls-149{fill:url(#linear-gradient-136);}.cls-150{fill:url(#linear-gradient-137);}.cls-151{fill:url(#linear-gradient-138);}.cls-152{fill:url(#linear-gradient-139);}.cls-153{fill:url(#linear-gradient-140);}.cls-154{fill:url(#linear-gradient-141);}.cls-155{fill:url(#linear-gradient-142);}.cls-156{fill:url(#linear-gradient-143);}.cls-157{fill:url(#linear-gradient-144);}.cls-158{fill:url(#linear-gradient-145);}.cls-159{fill:url(#linear-gradient-146);}.cls-160{fill:#632816;}.cls-162{clip-path:url(#clip-path-8);}.cls-163{fill:#dadada;}</style><clipPath id="clip-path"><rect class="cls-1" width="1120" height="760"/></clipPath><clipPath id="clip-path-2"><rect class="cls-2" x="370.03" y="-109.21" width="634.13" height="969.8"/></clipPath><clipPath id="clip-path-3"><path class="cls-1" d="M598.16,613.29c-.51,33.78,4.69,67.55-3.82,70.93s-218.76,48.13-223,64.18-7.89,204.68-7.89,204.68h682.58L1029.36,812.9S814.07,711.09,805.73,697.74s-25.28-119.64.71-175-50.78-97.06-50.78-97.06Z"/></clipPath><clipPath id="clip-path-4"><path class="cls-1" d="M610.26,205.94C451.91,229.69,501.45,482.05,509.71,513.41s38.57,109.87,75.76,116.76,168-11,192.83-48.21,51-108.81,39.94-174.92S748,185.28,610.26,205.94Z"/></clipPath><clipPath id="clip-path-5"><circle class="cls-1" cx="667.37" cy="378.98" r="60.05"/></clipPath><linearGradient id="linear-gradient" x1="716.55" y1="73.84" x2="773.06" y2="73.84" gradientTransform="translate(-37.58 476.29) rotate(-12.45)" gradientUnits="userSpaceOnUse"><stop offset="0" stop-color="#ebe3aa"/><stop offset="1" stop-color="#fba3d1"/></linearGradient><linearGradient id="linear-gradient-2" x1="693.5" y1="39.25" x2="710.95" y2="39.25" gradientTransform="translate(-37.58 476.29) rotate(-12.45)" gradientUnits="userSpaceOnUse"><stop offset="0" stop-color="#ebe3aa"/><stop offset="1" stop-color="#fff"/></linearGradient><linearGradient id="linear-gradient-3" x1="742.14" y1="95.38" x2="810.49" y2="95.38" xlink:href="#linear-gradient"/><linearGradient id="linear-gradient-4" x1="721.49" y1="80.34" x2="742.14" y2="80.34" xlink:href="#linear-gradient-2"/><linearGradient id="linear-gradient-5" x1="697.19" y1="56.06" x2="714.09" y2="56.06" gradientTransform="translate(-37.58 476.29) rotate(-12.45)" gradientUnits="userSpaceOnUse"><stop offset="0" stop-color="#65bde9"/><stop offset="1" stop-color="#fba3d1"/></linearGradient><linearGradient id="linear-gradient-6" x1="697.19" y1="61.03" x2="716.55" y2="61.03" xlink:href="#linear-gradient-2"/><linearGradient id="linear-gradient-7" x1="697.19" y1="66.22" x2="721.49" y2="66.22" xlink:href="#linear-gradient-5"/><linearGradient id="linear-gradient-8" x1="679.99" y1="80.31" x2="729.2" y2="80.31" xlink:href="#linear-gradient"/><linearGradient id="linear-gradient-9" x1="797.61" y1="121.22" x2="859.49" y2="121.22" xlink:href="#linear-gradient"/><linearGradient id="linear-gradient-10" x1="780.17" y1="-1.3" x2="922.05" y2="-1.3" xlink:href="#linear-gradient-2"/><linearGradient id="linear-gradient-11" x1="728.3" y1="37.4" x2="865.53" y2="37.4" xlink:href="#linear-gradient-5"/><linearGradient id="linear-gradient-12" x1="742.83" y1="-17.86" x2="922.05" y2="-17.86" xlink:href="#linear-gradient"/><linearGradient id="linear-gradient-13" x1="842.8" y1="154.21" x2="902.81" y2="154.21" xlink:href="#linear-gradient-2"/><linearGradient id="linear-gradient-14" x1="746.62" y1="63.07" x2="865.53" y2="63.07" xlink:href="#linear-gradient-2"/><linearGradient id="linear-gradient-15" x1="775.67" y1="68.35" x2="865.53" y2="68.35" xlink:href="#linear-gradient-5"/><linearGradient id="linear-gradient-16" x1="859.49" y1="146.58" x2="975.12" y2="146.58" xlink:href="#linear-gradient"/><linearGradient id="linear-gradient-17" x1="810.49" y1="111.79" x2="975.12" y2="111.79" xlink:href="#linear-gradient-2"/><linearGradient id="linear-gradient-18" x1="773.06" y1="88.97" x2="828.49" y2="88.97" xlink:href="#linear-gradient-2"/><linearGradient id="linear-gradient-19" x1="654.68" y1="37.82" x2="697.19" y2="37.82" xlink:href="#linear-gradient"/><linearGradient id="linear-gradient-20" x1="579.68" y1="43.63" x2="697.19" y2="43.63" xlink:href="#linear-gradient"/><linearGradient id="linear-gradient-21" x1="680.24" y1="-17.83" x2="720.51" y2="-17.83" xlink:href="#linear-gradient"/><linearGradient id="linear-gradient-22" x1="770.69" y1="75.07" x2="775.67" y2="75.07" xlink:href="#linear-gradient-5"/><linearGradient id="linear-gradient-23" x1="714.09" y1="65.61" x2="770.69" y2="65.61" xlink:href="#linear-gradient-5"/><linearGradient id="linear-gradient-24" x1="710.95" y1="51.27" x2="746.62" y2="51.27" xlink:href="#linear-gradient-2"/><linearGradient id="linear-gradient-25" x1="471.1" y1="145.59" x2="579.23" y2="145.59" xlink:href="#linear-gradient"/><linearGradient id="linear-gradient-26" x1="453.9" y1="261.03" x2="493.22" y2="261.03" xlink:href="#linear-gradient"/><linearGradient id="linear-gradient-27" x1="453.9" y1="164.58" x2="487.59" y2="164.58" xlink:href="#linear-gradient-5"/><linearGradient id="linear-gradient-28" x1="625.58" y1="-0.99" x2="710.33" y2="-0.99" xlink:href="#linear-gradient-2"/><linearGradient id="linear-gradient-29" x1="580" y1="1.26" x2="654.68" y2="1.26" xlink:href="#linear-gradient"/><linearGradient id="linear-gradient-30" x1="580.12" y1="-33.57" x2="625.58" y2="-33.57" xlink:href="#linear-gradient"/><linearGradient id="linear-gradient-31" x1="579.89" y1="35.07" x2="697.19" y2="35.07" xlink:href="#linear-gradient-5"/><linearGradient id="linear-gradient-32" x1="580.46" y1="-36.63" x2="680.24" y2="-36.63" xlink:href="#linear-gradient-5"/><linearGradient id="linear-gradient-33" x1="693.5" y1="4.85" x2="742.83" y2="4.85" xlink:href="#linear-gradient-5"/><linearGradient id="linear-gradient-34" x1="693.5" y1="23.61" x2="780.17" y2="23.61" xlink:href="#linear-gradient-2"/><linearGradient id="linear-gradient-35" x1="710.33" y1="-25.1" x2="922.05" y2="-25.1" xlink:href="#linear-gradient"/><linearGradient id="linear-gradient-36" x1="693.5" y1="35.79" x2="728.3" y2="35.79" xlink:href="#linear-gradient"/><linearGradient id="linear-gradient-37" x1="888.68" y1="238.24" x2="975.12" y2="238.24" xlink:href="#linear-gradient-5"/><linearGradient id="linear-gradient-38" x1="818.21" y1="273.26" x2="882.6" y2="273.26" xlink:href="#linear-gradient"/><linearGradient id="linear-gradient-39" x1="865.53" y1="6.13" x2="975.12" y2="6.13" xlink:href="#linear-gradient-5"/><linearGradient id="linear-gradient-40" x1="821.29" y1="236.54" x2="926.96" y2="236.54" xlink:href="#linear-gradient-2"/><linearGradient id="linear-gradient-41" x1="828.49" y1="83.02" x2="975.12" y2="83.02" xlink:href="#linear-gradient"/><linearGradient id="linear-gradient-42" x1="644.57" y1="253.92" x2="821.29" y2="253.92" xlink:href="#linear-gradient-5"/><linearGradient id="linear-gradient-43" x1="898.9" y1="175.73" x2="921.48" y2="175.73" xlink:href="#linear-gradient-2"/><linearGradient id="linear-gradient-44" x1="902.81" y1="158.45" x2="975.12" y2="158.45" xlink:href="#linear-gradient-5"/><linearGradient id="linear-gradient-45" x1="920.78" y1="184.12" x2="926.96" y2="184.12" xlink:href="#linear-gradient-5"/><linearGradient id="linear-gradient-46" x1="921.48" y1="186.38" x2="975.12" y2="186.38" xlink:href="#linear-gradient"/><linearGradient id="linear-gradient-47" x1="431.55" y1="-14.35" x2="493.22" y2="-14.35" xlink:href="#linear-gradient-5"/><linearGradient id="linear-gradient-48" x1="487.59" y1="209.37" x2="579.23" y2="209.37" xlink:href="#linear-gradient-5"/><linearGradient id="linear-gradient-49" x1="799.5" y1="213.38" x2="920.78" y2="213.38" xlink:href="#linear-gradient"/><linearGradient id="linear-gradient-50" x1="431.55" y1="111.97" x2="493.22" y2="111.97" xlink:href="#linear-gradient-2"/><linearGradient id="linear-gradient-51" x1="493.22" y1="209.37" x2="621.96" y2="209.37" xlink:href="#linear-gradient-2"/><linearGradient id="linear-gradient-52" x1="621.96" y1="219.81" x2="799.5" y2="219.81" xlink:href="#linear-gradient"/><linearGradient id="linear-gradient-53" x1="738.64" y1="-73.73" x2="922.05" y2="-73.73" xlink:href="#linear-gradient-2"/><linearGradient id="linear-gradient-54" x1="493.22" y1="265.85" x2="621.96" y2="265.85" xlink:href="#linear-gradient"/><linearGradient id="linear-gradient-55" x1="547.79" y1="265.85" x2="640.53" y2="265.85" xlink:href="#linear-gradient-2"/><linearGradient id="linear-gradient-56" x1="579.23" y1="93.93" x2="697.19" y2="93.93" xlink:href="#linear-gradient-5"/><linearGradient id="linear-gradient-57" x1="493.22" y1="15.98" x2="580" y2="15.98" xlink:href="#linear-gradient-2"/><linearGradient id="linear-gradient-58" x1="431.55" y1="-44.86" x2="580.46" y2="-44.86" xlink:href="#linear-gradient-2"/><linearGradient id="linear-gradient-59" x1="493.22" y1="1.57" x2="580.12" y2="1.57" xlink:href="#linear-gradient-5"/><linearGradient id="linear-gradient-60" x1="471.1" y1="31.88" x2="579.89" y2="31.88" xlink:href="#linear-gradient"/><linearGradient id="linear-gradient-61" x1="464.7" y1="-76.8" x2="628.58" y2="-76.8" xlink:href="#linear-gradient-5"/><linearGradient id="linear-gradient-62" x1="471.1" y1="93.93" x2="579.68" y2="93.93" xlink:href="#linear-gradient-2"/><linearGradient id="linear-gradient-63" x1="580.46" y1="-40.31" x2="738.64" y2="-40.31" xlink:href="#linear-gradient-2"/><linearGradient id="linear-gradient-64" x1="761.08" y1="178.58" x2="898.9" y2="178.58" xlink:href="#linear-gradient-5"/><linearGradient id="linear-gradient-65" x1="580.46" y1="-75.38" x2="760.75" y2="-75.38" xlink:href="#linear-gradient"/><linearGradient id="linear-gradient-66" x1="729.2" y1="116.75" x2="797.61" y2="116.75" xlink:href="#linear-gradient-5"/><linearGradient id="linear-gradient-67" x1="664.65" y1="118.5" x2="761.08" y2="118.5" xlink:href="#linear-gradient"/><linearGradient id="linear-gradient-68" x1="761.08" y1="132.03" x2="842.8" y2="132.03" xlink:href="#linear-gradient-2"/><linearGradient id="linear-gradient-69" x1="621.96" y1="189.73" x2="761.08" y2="189.73" xlink:href="#linear-gradient-2"/><linearGradient id="linear-gradient-70" x1="579.23" y1="184.82" x2="664.65" y2="184.82" xlink:href="#linear-gradient-5"/><linearGradient id="linear-gradient-71" x1="579.23" y1="93.93" x2="697.19" y2="93.93" xlink:href="#linear-gradient-2"/><linearGradient id="linear-gradient-72" x1="720.51" y1="-41.6" x2="922.05" y2="-41.6" xlink:href="#linear-gradient-2"/><linearGradient id="linear-gradient-73" x1="579.23" y1="119.62" x2="679.99" y2="119.62" xlink:href="#linear-gradient"/><clipPath id="clip-path-6"><ellipse class="cls-1" cx="496.82" cy="389.4" rx="55" ry="55.99"/></clipPath><linearGradient id="linear-gradient-74" x1="355.44" y1="704.66" x2="407.19" y2="704.66" gradientTransform="translate(925.67 1012.9) rotate(172)" xlink:href="#linear-gradient"/><linearGradient id="linear-gradient-75" x1="334.43" y1="672.49" x2="350.34" y2="672.49" gradientTransform="translate(925.67 1012.9) rotate(172)" xlink:href="#linear-gradient-2"/><linearGradient id="linear-gradient-76" x1="378.84" y1="724.61" x2="441.43" y2="724.61" gradientTransform="translate(925.67 1012.9) rotate(172)" xlink:href="#linear-gradient"/><linearGradient id="linear-gradient-77" x1="359.94" y1="710.73" x2="378.84" y2="710.73" gradientTransform="translate(925.67 1012.9) rotate(172)" xlink:href="#linear-gradient-2"/><linearGradient id="linear-gradient-78" x1="337.71" y1="688.15" x2="353.2" y2="688.15" gradientTransform="translate(925.67 1012.9) rotate(172)" xlink:href="#linear-gradient-5"/><linearGradient id="linear-gradient-79" x1="337.71" y1="692.75" x2="355.44" y2="692.75" gradientTransform="translate(925.67 1012.9) rotate(172)" xlink:href="#linear-gradient-2"/><linearGradient id="linear-gradient-80" x1="337.71" y1="697.6" x2="359.94" y2="697.6" gradientTransform="translate(925.67 1012.9) rotate(172)" xlink:href="#linear-gradient-5"/><linearGradient id="linear-gradient-81" x1="321.86" y1="710.78" x2="366.98" y2="710.78" gradientTransform="translate(925.67 1012.9) rotate(172)" xlink:href="#linear-gradient"/><linearGradient id="linear-gradient-82" x1="429.6" y1="748.61" x2="486.24" y2="748.61" gradientTransform="translate(925.67 1012.9) rotate(172)" xlink:href="#linear-gradient"/><linearGradient id="linear-gradient-83" x1="413.83" y1="634.24" x2="543.99" y2="634.24" gradientTransform="translate(925.67 1012.9) rotate(172)" xlink:href="#linear-gradient-2"/><linearGradient id="linear-gradient-84" x1="366.25" y1="670.62" x2="491.97" y2="670.62" gradientTransform="translate(925.67 1012.9) rotate(172)" xlink:href="#linear-gradient-5"/><linearGradient id="linear-gradient-85" x1="379.66" y1="618.9" x2="543.99" y2="618.9" gradientTransform="translate(925.67 1012.9) rotate(172)" xlink:href="#linear-gradient"/><linearGradient id="linear-gradient-86" x1="470.94" y1="779.24" x2="525.85" y2="779.24" gradientTransform="translate(925.67 1012.9) rotate(172)" xlink:href="#linear-gradient-2"/><linearGradient id="linear-gradient-87" x1="383.01" y1="694.41" x2="491.97" y2="694.41" gradientTransform="translate(925.67 1012.9) rotate(172)" xlink:href="#linear-gradient-2"/><linearGradient id="linear-gradient-88" x1="409.58" y1="699.28" x2="491.97" y2="699.28" gradientTransform="translate(925.67 1012.9) rotate(172)" xlink:href="#linear-gradient-5"/><linearGradient id="linear-gradient-89" x1="486.24" y1="771.98" x2="592.21" y2="771.98" gradientTransform="translate(925.67 1012.9) rotate(172)" xlink:href="#linear-gradient"/><linearGradient id="linear-gradient-90" x1="441.43" y1="739.77" x2="592.23" y2="739.77" gradientTransform="translate(925.67 1012.9) rotate(172)" xlink:href="#linear-gradient-2"/><linearGradient id="linear-gradient-91" x1="407.19" y1="718.62" x2="457.95" y2="718.62" gradientTransform="translate(925.67 1012.9) rotate(172)" xlink:href="#linear-gradient-2"/><linearGradient id="linear-gradient-92" x1="298.86" y1="671.21" x2="337.71" y2="671.21" gradientTransform="translate(925.67 1012.9) rotate(172)" xlink:href="#linear-gradient"/><linearGradient id="linear-gradient-93" x1="230.05" y1="676.84" x2="337.71" y2="676.84" gradientTransform="translate(925.67 1012.9) rotate(172)" xlink:href="#linear-gradient"/><linearGradient id="linear-gradient-94" x1="322.37" y1="619.24" x2="359.28" y2="619.24" gradientTransform="translate(925.67 1012.9) rotate(172)" xlink:href="#linear-gradient"/><linearGradient id="linear-gradient-95" x1="405.02" y1="705.71" x2="409.58" y2="705.71" gradientTransform="translate(925.67 1012.9) rotate(172)" xlink:href="#linear-gradient-5"/><linearGradient id="linear-gradient-96" x1="353.2" y1="696.92" x2="405.02" y2="696.92" gradientTransform="translate(925.67 1012.9) rotate(172)" xlink:href="#linear-gradient-5"/><linearGradient id="linear-gradient-97" x1="350.34" y1="683.64" x2="383.01" y2="683.64" gradientTransform="translate(925.67 1012.9) rotate(172)" xlink:href="#linear-gradient-2"/><linearGradient id="linear-gradient-98" x1="130.57" y1="772.12" x2="229.48" y2="772.12" gradientTransform="translate(925.67 1012.9) rotate(172)" xlink:href="#linear-gradient"/><linearGradient id="linear-gradient-99" x1="114.32" y1="879.7" x2="150.3" y2="879.7" gradientTransform="translate(925.67 1012.9) rotate(172)" xlink:href="#linear-gradient"/><linearGradient id="linear-gradient-100" x1="114.32" y1="789.86" x2="145.28" y2="789.86" gradientTransform="translate(925.67 1012.9) rotate(172)" xlink:href="#linear-gradient-5"/><linearGradient id="linear-gradient-101" x1="272.27" y1="635" x2="349.91" y2="635" gradientTransform="translate(925.67 1012.9) rotate(172)" xlink:href="#linear-gradient-2"/><linearGradient id="linear-gradient-102" x1="230.45" y1="637.21" x2="298.86" y2="637.21" gradientTransform="translate(925.67 1012.9) rotate(172)" xlink:href="#linear-gradient"/><linearGradient id="linear-gradient-103" x1="230.6" y1="604.88" x2="272.27" y2="604.88" gradientTransform="translate(925.67 1012.9) rotate(172)" xlink:href="#linear-gradient"/><linearGradient id="linear-gradient-104" x1="230.31" y1="668.73" x2="337.71" y2="668.73" gradientTransform="translate(925.67 1012.9) rotate(172)" xlink:href="#linear-gradient-5"/><linearGradient id="linear-gradient-105" x1="231.03" y1="601.97" x2="322.37" y2="601.97" gradientTransform="translate(925.67 1012.9) rotate(172)" xlink:href="#linear-gradient-5"/><linearGradient id="linear-gradient-106" x1="334.43" y1="640.41" x2="379.66" y2="640.41" gradientTransform="translate(925.67 1012.9) rotate(172)" xlink:href="#linear-gradient-5"/><linearGradient id="linear-gradient-107" x1="334.43" y1="657.82" x2="413.83" y2="657.82" gradientTransform="translate(925.67 1012.9) rotate(172)" xlink:href="#linear-gradient-2"/><linearGradient id="linear-gradient-108" x1="349.91" y1="612.2" x2="543.99" y2="612.2" gradientTransform="translate(925.67 1012.9) rotate(172)" xlink:href="#linear-gradient"/><linearGradient id="linear-gradient-109" x1="334.43" y1="669.25" x2="366.25" y2="669.25" gradientTransform="translate(925.67 1012.9) rotate(172)" xlink:href="#linear-gradient"/><linearGradient id="linear-gradient-110" x1="512.63" y1="857.51" x2="591.97" y2="857.51" gradientTransform="translate(925.67 1012.9) rotate(172)" xlink:href="#linear-gradient-5"/><linearGradient id="linear-gradient-111" x1="448.07" y1="890.35" x2="507.06" y2="890.35" gradientTransform="translate(925.67 1012.9) rotate(172)" xlink:href="#linear-gradient"/><linearGradient id="linear-gradient-112" x1="491.97" y1="640.98" x2="592.71" y2="640.98" gradientTransform="translate(925.67 1012.9) rotate(172)" xlink:href="#linear-gradient-5"/><linearGradient id="linear-gradient-113" x1="450.97" y1="855.93" x2="547.95" y2="855.93" gradientTransform="translate(925.67 1012.9) rotate(172)" xlink:href="#linear-gradient-2"/><linearGradient id="linear-gradient-114" x1="457.95" y1="712.78" x2="592.25" y2="712.78" gradientTransform="translate(925.67 1012.9) rotate(172)" xlink:href="#linear-gradient"/><linearGradient id="linear-gradient-115" x1="288.98" y1="872.55" x2="450.97" y2="872.55" gradientTransform="translate(925.67 1012.9) rotate(172)" xlink:href="#linear-gradient-5"/><linearGradient id="linear-gradient-116" x1="522.27" y1="799.23" x2="542.93" y2="799.23" gradientTransform="translate(925.67 1012.9) rotate(172)" xlink:href="#linear-gradient-2"/><linearGradient id="linear-gradient-117" x1="525.85" y1="783.03" x2="592.19" y2="783.03" gradientTransform="translate(925.67 1012.9) rotate(172)" xlink:href="#linear-gradient-5"/><linearGradient id="linear-gradient-118" x1="542.29" y1="807.02" x2="547.95" y2="807.02" gradientTransform="translate(925.67 1012.9) rotate(172)" xlink:href="#linear-gradient-5"/><linearGradient id="linear-gradient-119" x1="542.93" y1="809" x2="592.17" y2="809" gradientTransform="translate(925.67 1012.9) rotate(172)" xlink:href="#linear-gradient"/><linearGradient id="linear-gradient-120" x1="94.61" y1="623.09" x2="150.96" y2="623.09" gradientTransform="translate(925.67 1012.9) rotate(172)" xlink:href="#linear-gradient-5"/><linearGradient id="linear-gradient-121" x1="145.28" y1="831.44" x2="229.48" y2="831.44" gradientTransform="translate(925.67 1012.9) rotate(172)" xlink:href="#linear-gradient-5"/><linearGradient id="linear-gradient-122" x1="431.1" y1="834.44" x2="542.29" y2="834.44" gradientTransform="translate(925.67 1012.9) rotate(172)" xlink:href="#linear-gradient"/><linearGradient id="linear-gradient-123" x1="93.8" y1="740.89" x2="150.3" y2="740.89" gradientTransform="translate(925.67 1012.9) rotate(172)" xlink:href="#linear-gradient-2"/><linearGradient id="linear-gradient-124" x1="150.3" y1="831.44" x2="268.37" y2="831.44" gradientTransform="translate(925.67 1012.9) rotate(172)" xlink:href="#linear-gradient-2"/><linearGradient id="linear-gradient-125" x1="268.37" y1="840.8" x2="431.1" y2="840.8" gradientTransform="translate(925.67 1012.9) rotate(172)" xlink:href="#linear-gradient"/><linearGradient id="linear-gradient-126" x1="375.96" y1="566.67" x2="543.99" y2="566.67" gradientTransform="translate(925.67 1012.9) rotate(172)" xlink:href="#linear-gradient-2"/><linearGradient id="linear-gradient-127" x1="150.3" y1="884.05" x2="268.37" y2="884.05" gradientTransform="translate(925.67 1012.9) rotate(172)" xlink:href="#linear-gradient"/><linearGradient id="linear-gradient-128" x1="200.3" y1="883.99" x2="285.28" y2="883.99" gradientTransform="translate(925.67 1012.9) rotate(172)" xlink:href="#linear-gradient-2"/><linearGradient id="linear-gradient-129" x1="229.48" y1="723.6" x2="337.71" y2="723.6" gradientTransform="translate(925.67 1012.9) rotate(172)" xlink:href="#linear-gradient-5"/><linearGradient id="linear-gradient-130" x1="150.96" y1="651.16" x2="230.45" y2="651.16" gradientTransform="translate(925.67 1012.9) rotate(172)" xlink:href="#linear-gradient-2"/><linearGradient id="linear-gradient-131" x1="94.66" y1="594.59" x2="231.03" y2="594.59" gradientTransform="translate(925.67 1012.9) rotate(172)" xlink:href="#linear-gradient-2"/><linearGradient id="linear-gradient-132" x1="150.96" y1="637.64" x2="230.6" y2="637.64" gradientTransform="translate(925.67 1012.9) rotate(172)" xlink:href="#linear-gradient-5"/><linearGradient id="linear-gradient-133" x1="130.57" y1="666.11" x2="230.31" y2="666.11" gradientTransform="translate(925.67 1012.9) rotate(172)" xlink:href="#linear-gradient"/><linearGradient id="linear-gradient-134" x1="125.05" y1="564.52" x2="275.2" y2="564.52" gradientTransform="translate(925.67 1012.9) rotate(172)" xlink:href="#linear-gradient-5"/><linearGradient id="linear-gradient-135" x1="130.57" y1="723.73" x2="230.05" y2="723.73" gradientTransform="translate(925.67 1012.9) rotate(172)" xlink:href="#linear-gradient-2"/><linearGradient id="linear-gradient-136" x1="231.03" y1="598.48" x2="375.96" y2="598.48" gradientTransform="translate(925.67 1012.9) rotate(172)" xlink:href="#linear-gradient-2"/><linearGradient id="linear-gradient-137" x1="396.05" y1="802.09" x2="522.27" y2="802.09" gradientTransform="translate(925.67 1012.9) rotate(172)" xlink:href="#linear-gradient-5"/><linearGradient id="linear-gradient-138" x1="231.03" y1="565.51" x2="396.3" y2="565.51" gradientTransform="translate(925.67 1012.9) rotate(172)" xlink:href="#linear-gradient"/><linearGradient id="linear-gradient-139" x1="366.98" y1="744.61" x2="429.6" y2="744.61" gradientTransform="translate(925.67 1012.9) rotate(172)" xlink:href="#linear-gradient-5"/><linearGradient id="linear-gradient-140" x1="307.72" y1="746.26" x2="396.05" y2="746.26" gradientTransform="translate(925.67 1012.9) rotate(172)" xlink:href="#linear-gradient"/><linearGradient id="linear-gradient-141" x1="396.05" y1="758.79" x2="470.94" y2="758.79" gradientTransform="translate(925.67 1012.9) rotate(172)" xlink:href="#linear-gradient-2"/><linearGradient id="linear-gradient-142" x1="268.37" y1="812.89" x2="396.05" y2="812.89" gradientTransform="translate(925.67 1012.9) rotate(172)" xlink:href="#linear-gradient-2"/><linearGradient id="linear-gradient-143" x1="229.48" y1="808.41" x2="307.72" y2="808.41" gradientTransform="translate(925.67 1012.9) rotate(172)" xlink:href="#linear-gradient-5"/><linearGradient id="linear-gradient-144" x1="229.48" y1="723.6" x2="337.71" y2="723.6" gradientTransform="translate(925.67 1012.9) rotate(172)" xlink:href="#linear-gradient-2"/><linearGradient id="linear-gradient-145" x1="359.28" y1="597.05" x2="543.99" y2="597.05" gradientTransform="translate(925.67 1012.9) rotate(172)" xlink:href="#linear-gradient-2"/><linearGradient id="linear-gradient-146" x1="229.48" y1="747.47" x2="321.86" y2="747.47" gradientTransform="translate(925.67 1012.9) rotate(172)" xlink:href="#linear-gradient"/><clipPath id="clip-path-8"><path class="cls-1" d="M491,702.36C647,822.62,826.81,770.75,882,741s251,138.46,251,138.46l-55.15,201.31-737.06-80S259.41,668.33,491,702.36Z"/></clipPath></defs><g class="cls-3"><rect class="cls-2" width="1120" height="760"/><rect class="cls-2" x="370.03" y="-109.21" width="634.13" height="969.8"/><g class="cls-4"><path class="cls-5" d="M598.16,613.29c-.51,33.78,4.69,67.55-3.82,70.93s-218.76,48.13-223,64.18-7.89,204.68-7.89,204.68h682.58L1029.36,812.9S814.07,711.09,805.73,697.74s-25.28-119.64.71-175-50.78-97.06-50.78-97.06Z"/><g class="cls-6"><path class="cls-7" d="M598.16,613.29C740.32,706.85,771.89,823.39,772,885.68s110.51,43.49,110.51-167.13S828.22,503,786,506.46,598.16,613.29,598.16,613.29Z"/></g><path d="M896.15,347.14c-27.58,135.13-122.93,255-240.39,255S586.6,455.88,481.3,406C437.43,224.66,468.08,36.59,674.43,55.69,896.15,76.2,925.35,204.07,896.15,347.14Z"/><path class="cls-5" d="M812.34,380.57c53.48-38.8,55.61,46.18,47.78,70.17s-34,60.84-49,40.39S812.34,380.57,812.34,380.57Z"/><path class="cls-5" d="M610.26,205.94C451.91,229.69,501.45,482.05,509.71,513.41s38.57,109.87,75.76,116.76,168-11,192.83-48.21,51-108.81,39.94-174.92S748,185.28,610.26,205.94Z"/><path class="cls-8" d="M551.87,537.06c-2.44,4.47-10,34.53,22.75,32.3s80.89-29.3,71-35S551.87,537.06,551.87,537.06Z"/><g class="cls-9"><path class="cls-7" d="M561.23,183.3c132.79,67,173.91,112.93,164.44,189.82S654.1,500.77,671.36,569.48s160.51-45.35,160.51-45.35L846.6,28.47Z"/></g><path d="M552.08,490.9c-10.5,2.49-15.69-15.82-9.17-13.19S564.28,488,552.08,490.9Z"/><path d="M583.78,482.15c-3.77,2.23-5.6-9.94-1-9.66s26.05,4.2,21.85,8S589.25,478.93,583.78,482.15Z"/><ellipse class="cls-2" cx="496.83" cy="389.46" rx="62.22" ry="63.35"/><circle class="cls-2" cx="667.38" cy="379.04" r="67.94"/><path class="cls-2" d="M423.85,388a3.88,3.88,0,0,0-2.44,3.92c.39,5.43,1.34,16.41,2.58,17.19,1.66,1,13.53-.11,14.46,2.31s-2.85-33.29-2.85-33.29S435.27,383.54,423.85,388Z"/><path class="cls-2" d="M564.76,363.89c5-2.37,29.88-3.68,31.62-1.56s4.67,8.56,9.12,6.14,6.82,25.54,1.22,24.6-8.34-23.27-26.92-21.62C561.91,373,562.71,395.78,557,397.74s-9-27.75-3.64-26.25S561.28,365.53,564.76,363.89Z"/><path class="cls-2" d="M741.41,352a4.19,4.19,0,0,1,4,3c1.63,5.59,4.77,17,3.79,18.25-1.3,1.69-13.88,5.05-13.92,7.83s-9.56-34.53-9.56-34.53S728.06,351.87,741.41,352Z"/><path class="cls-2" d="M737.53,351.77c10.31-1.4,84.3,22.91,84.3,22.91l-7.33,4.38s-41-17.31-65.33-5.82S737.53,351.77,737.53,351.77Z"/><g class="cls-10"><polygon class="cls-11" points="651.46 623.18 654.46 620.86 650.51 621.73 651.46 623.18"/><polygon class="cls-12" points="730.99 382.57 675.79 383.68 682.66 391.9 705.28 398.55 733.67 383.72 730.99 382.57"/><polygon class="cls-13" points="643.71 345.27 656.05 384.07 668 374.35 643.71 345.27"/><polygon class="cls-14" points="733.67 383.72 705.28 398.55 766.04 416.43 776 401.81 733.67 383.72"/><polygon class="cls-15" points="693.4 404.76 705.28 398.55 682.66 391.9 693.4 404.76"/><polygon class="cls-16" points="668 374.35 656.05 384.07 672.37 379.58 668 374.35"/><polygon class="cls-17" points="672.37 379.58 656.05 384.07 675.79 383.68 672.37 379.58"/><polygon class="cls-18" points="675.79 383.68 656.05 384.07 682.66 391.9 675.79 383.68"/><polygon class="cls-19" points="656.05 384.07 648.22 428.37 693.4 404.76 682.66 391.9 656.05 384.07"/><polygon class="cls-20" points="776 401.81 766.04 416.43 815.53 430.99 831.41 425.49 776 401.81"/><polygon class="cls-21" points="818.57 339.37 851.24 225.19 728.08 325.44 818.57 339.37"/><polygon class="cls-22" points="683.06 362.09 703.77 370.94 818.57 339.37 728.08 325.44 683.06 362.09"/><polygon class="cls-23" points="728.08 325.44 851.24 225.19 688.5 319.35 728.08 325.44"/><polygon class="cls-24" points="815.53 430.99 876.98 449.06 880.39 446.43 831.41 425.49 815.53 430.99"/><polygon class="cls-25" points="730.99 382.57 736.07 382.47 818.57 339.37 703.77 370.94 730.99 382.57"/><polygon class="cls-26" points="789.92 381.4 818.57 339.37 736.07 382.47 789.92 381.4"/><polygon class="cls-27" points="880.39 446.43 943.66 397.58 941.42 387.44 831.41 425.49 880.39 446.43"/><polygon class="cls-28" points="831.41 425.49 941.42 387.44 939.43 378.41 789.92 381.4 776 401.81 831.41 425.49"/><polygon class="cls-29" points="733.67 383.72 776 401.81 789.92 381.4 736.07 382.47 733.67 383.72"/><polygon class="cls-30" points="605.18 350.85 656.05 384.07 643.71 345.27 605.18 350.85"/><polygon class="cls-31" points="541.3 409.41 656.05 384.07 534.65 378.31 541.3 409.41"/><polygon class="cls-32" points="660.3 295.16 622.14 309.14 654.04 314.05 660.3 295.16"/><polygon class="cls-33" points="736.07 382.47 730.99 382.57 733.67 383.72 736.07 382.47"/><polygon class="cls-34" points="675.79 383.68 730.99 382.57 703.77 370.94 672.37 379.58 675.79 383.68"/><polygon class="cls-35" points="672.37 379.58 703.77 370.94 683.06 362.09 668 374.35 672.37 379.58"/><polygon class="cls-36" points="488.5 597.35 555.7 476.7 435.28 432.82 488.5 597.35"/><polygon class="cls-37" points="463.79 641.71 506.66 653.5 488.5 597.35 463.79 641.71"/><polygon class="cls-38" points="463.79 641.71 488.5 597.35 435.28 432.82 463.79 641.71"/><polygon class="cls-39" points="605.18 350.85 643.71 345.27 654.04 314.05 622.14 309.14 570.36 328.11 605.18 350.85"/><polygon class="cls-40" points="570.36 328.11 527.28 343.89 531.07 361.59 605.18 350.85 570.36 328.11"/><polygon class="cls-41" points="516.36 292.86 527.28 343.89 570.36 328.11 516.36 292.86"/><polygon class="cls-42" points="531.07 361.59 534.65 378.31 656.05 384.07 605.18 350.85 531.07 361.59"/><polygon class="cls-43" points="622.14 309.14 516.36 292.86 570.36 328.11 622.14 309.14"/><polygon class="cls-44" points="688.5 319.35 654.04 314.05 643.71 345.27 688.5 319.35"/><polygon class="cls-45" points="683.06 362.09 728.08 325.44 688.5 319.35 643.71 345.27 683.06 362.09"/><polygon class="cls-46" points="654.04 314.05 688.5 319.35 851.24 225.19 660.3 295.16 654.04 314.05"/><polygon class="cls-47" points="668 374.35 683.06 362.09 643.71 345.27 668 374.35"/><polygon class="cls-48" points="892.82 568.22 977.23 549.58 964.25 490.79 907.71 458.1 892.82 568.22"/><polygon class="cls-49" points="824.02 583.42 886.88 569.53 819.63 549.28 824.02 583.42"/><polygon class="cls-50" points="818.57 339.37 937.51 369.72 894.35 174.28 830.16 188.45 851.24 225.19 818.57 339.37"/><polygon class="cls-51" points="907.71 458.1 900.93 456.11 819.63 549.28 886.88 569.53 892.82 568.22 907.71 458.1"/><polygon class="cls-52" points="789.92 381.4 939.43 378.41 937.51 369.72 818.57 339.37 789.92 381.4"/><polygon class="cls-53" points="790.01 516.21 654.46 620.86 824.02 583.42 819.63 549.28 790.01 516.21"/><polygon class="cls-54" points="880.39 446.43 876.98 449.06 900.93 456.11 901.51 455.45 880.39 446.43"/><polygon class="cls-55" points="880.39 446.43 901.51 455.45 945.35 405.22 943.66 397.58 880.39 446.43"/><polygon class="cls-56" points="900.93 456.11 907.71 458.1 901.51 455.45 900.93 456.11"/><polygon class="cls-57" points="907.71 458.1 964.25 490.79 945.35 405.22 901.51 455.45 907.71 458.1"/><polygon class="cls-58" points="444.95 374.06 364.79 297.08 369.49 318.34 435.28 432.82 444.95 374.06"/><polygon class="cls-59" points="488.5 597.35 506.66 653.5 555.7 476.7 488.5 597.35"/><polygon class="cls-60" points="790.01 516.21 819.63 549.28 900.93 456.11 876.98 449.06 790.01 516.21"/><polygon class="cls-61" points="435.28 432.82 369.49 318.34 446.44 666.8 506.66 653.5 463.79 641.71 435.28 432.82"/><polygon class="cls-62" points="621.79 577.8 555.7 476.7 506.66 653.5 621.79 577.8 621.79 577.8"/><polygon class="cls-63" points="737.78 457.88 621.79 577.8 650.51 621.73 654.46 620.86 790.01 516.21 737.78 457.88"/><polygon class="cls-64" points="671.44 261.52 851.24 225.19 830.16 188.45 685.02 220.5 671.44 261.52"/><polygon class="cls-65" points="621.79 577.8 621.79 577.8 506.66 653.5 559.95 641.73 621.79 577.8 621.79 577.8"/><polygon class="cls-66" points="559.95 641.73 650.51 621.73 621.79 577.8 559.95 641.73"/><polygon class="cls-67" points="541.3 409.41 555.7 476.7 656.05 384.07 541.3 409.41"/><polygon class="cls-68" points="531.07 361.59 444.95 374.06 534.65 378.31 531.07 361.59"/><polygon class="cls-69" points="516.36 292.86 395.93 284.35 363.56 291.5 364.79 297.08 444.95 374.06 527.28 343.89 516.36 292.86"/><polygon class="cls-70" points="527.28 343.89 444.95 374.06 531.07 361.59 527.28 343.89"/><polygon class="cls-71" points="534.65 378.31 444.95 374.06 435.28 432.82 541.3 409.41 534.65 378.31"/><polygon class="cls-72" points="555.96 249.01 395.93 284.35 516.36 292.86 555.96 249.01"/><polygon class="cls-73" points="435.28 432.82 555.7 476.7 541.3 409.41 435.28 432.82"/><polygon class="cls-74" points="622.14 309.14 660.3 295.16 671.44 261.52 516.36 292.86 622.14 309.14"/><polygon class="cls-75" points="815.53 430.99 737.78 457.88 790.01 516.21 876.98 449.06 815.53 430.99"/><polygon class="cls-76" points="671.44 261.52 685.02 220.5 555.96 249.01 516.36 292.86 671.44 261.52"/><polygon class="cls-77" points="705.28 398.55 693.4 404.76 737.78 457.88 766.04 416.43 705.28 398.55"/><polygon class="cls-78" points="648.22 428.37 641.23 467.86 737.78 457.88 693.4 404.76 648.22 428.37"/><polygon class="cls-79" points="766.04 416.43 737.78 457.88 815.53 430.99 766.04 416.43"/><polygon class="cls-80" points="621.79 577.8 621.79 577.8 737.78 457.88 641.23 467.86 621.79 577.8"/><polygon class="cls-81" points="555.7 476.7 621.79 577.8 641.23 467.86 555.7 476.7"/><polygon class="cls-82" points="656.05 384.07 555.7 476.7 648.22 428.37 656.05 384.07"/><polygon class="cls-83" points="851.24 225.19 671.44 261.52 660.3 295.16 851.24 225.19"/><polygon class="cls-84" points="648.22 428.37 555.7 476.7 641.23 467.86 648.22 428.37"/></g><g class="cls-85"><polygon class="cls-86" points="516.18 153.29 513.28 155.23 516.94 154.7 516.18 153.29"/><polygon class="cls-87" points="426.46 371.22 476.94 374.19 471.25 366.05 451.07 358.23 424.09 369.96 426.46 371.22"/><polygon class="cls-88" points="503.51 412.22 495 375.26 483.39 383.43 503.51 412.22"/><polygon class="cls-89" points="424.09 369.96 451.07 358.23 396.86 337.21 386.72 350.08 424.09 369.96"/><polygon class="cls-90" points="462.36 353.32 451.07 358.23 471.25 366.05 462.36 353.32"/><polygon class="cls-91" points="483.39 383.43 495 375.26 479.77 378.25 483.39 383.43"/><polygon class="cls-92" points="479.77 378.25 495 375.26 476.94 374.19 479.77 378.25"/><polygon class="cls-93" points="476.94 374.19 495 375.26 471.25 366.05 476.94 374.19"/><polygon class="cls-94" points="495 375.26 505.3 334.64 462.36 353.32 471.25 366.05 495 375.26"/><polygon class="cls-95" points="386.72 350.08 396.86 337.21 352.7 320.1 337.81 324.05 386.72 350.08"/><polygon class="cls-96" points="343.41 405.05 305.47 508.83 425.06 424.55 343.41 405.05"/><polygon class="cls-97" points="468.77 393.74 450.48 384.01 343.41 405.05 425.06 424.55 468.77 393.74"/><polygon class="cls-98" points="425.06 424.55 305.47 508.83 460.76 433.08 425.06 424.55"/><polygon class="cls-99" points="352.7 320.1 297.88 298.84 294.57 301.05 337.81 324.05 352.7 320.1"/><polygon class="cls-100" points="426.46 371.22 421.82 370.95 343.41 405.05 450.48 384.01 426.46 371.22"/><polygon class="cls-101" points="372.56 368.05 343.41 405.05 421.82 370.95 372.56 368.05"/><polygon class="cls-102" points="294.57 301.05 233.33 341.88 234.65 351.46 337.81 324.05 294.57 301.05"/><polygon class="cls-103" points="337.81 324.05 234.65 351.46 235.83 360.01 372.56 368.05 386.72 350.08 337.81 324.05"/><polygon class="cls-104" points="424.09 369.96 386.72 350.08 372.56 368.05 421.82 370.95 424.09 369.96"/><polygon class="cls-105" points="539.09 409.82 495 375.26 503.51 412.22 539.09 409.82"/><polygon class="cls-106" points="601.58 360 495 375.26 605.44 389.39 601.58 360"/><polygon class="cls-107" points="484.79 457.61 520.63 447.37 491.85 440.5 484.79 457.61"/><polygon class="cls-108" points="421.82 370.95 426.46 371.22 424.09 369.96 421.82 370.95"/><polygon class="cls-109" points="476.94 374.19 426.46 371.22 450.48 384.01 479.77 378.25 476.94 374.19"/><polygon class="cls-110" points="479.77 378.25 450.48 384.01 468.77 393.74 483.39 383.43 479.77 378.25"/><polygon class="cls-111" points="663.15 189.1 593.21 296.4 700.05 345.91 663.15 189.1"/><polygon class="cls-112" points="688.87 149.65 650.56 135.58 663.15 189.1 688.87 149.65"/><polygon class="cls-113" points="688.87 149.65 663.15 189.1 700.05 345.91 688.87 149.65"/><polygon class="cls-114" points="539.09 409.82 503.51 412.22 491.85 440.5 520.63 447.37 569.27 433.48 539.09 409.82"/><polygon class="cls-115" points="569.27 433.48 609.72 421.93 607.52 405.2 539.09 409.82 569.27 433.48"/><polygon class="cls-116" points="616.07 470.17 609.72 421.93 569.27 433.48 616.07 470.17"/><polygon class="cls-117" points="607.52 405.2 605.44 389.39 495 375.26 539.09 409.82 607.52 405.2"/><polygon class="cls-118" points="520.63 447.37 616.07 470.17 569.27 433.48 520.63 447.37"/><polygon class="cls-119" points="460.76 433.08 491.85 440.5 503.51 412.22 460.76 433.08"/><polygon class="cls-120" points="468.77 393.74 425.06 424.55 460.76 433.08 503.51 412.22 468.77 393.74"/><polygon class="cls-121" points="491.85 440.5 460.76 433.08 305.47 508.83 484.79 457.61 491.85 440.5"/><polygon class="cls-122" points="483.39 383.43 468.77 393.74 503.51 412.22 483.39 383.43"/><polygon class="cls-123" points="291.88 186.92 213.48 198.14 221.16 253.74 270.46 288.21 291.88 186.92"/><polygon class="cls-124" points="355.79 177.77 297.39 186.13 357.37 209.82 355.79 177.77"/><polygon class="cls-125" points="343.41 405.05 236.97 368.23 262.49 553.05 322.1 544.52 305.47 508.83 343.41 405.05"/><polygon class="cls-126" points="270.46 288.21 276.5 290.56 357.37 209.82 297.39 186.13 291.88 186.92 270.46 288.21"/><polygon class="cls-127" points="372.56 368.05 235.83 360.01 236.97 368.23 343.41 405.05 372.56 368.05"/><polygon class="cls-128" points="382.06 242.72 513.28 155.23 355.79 177.77 357.37 209.82 382.06 242.72"/><polygon class="cls-129" points="294.57 301.05 297.88 298.84 276.5 290.56 275.93 291.13 294.57 301.05"/><polygon class="cls-130" points="294.57 301.05 275.93 291.13 232.33 334.66 233.33 341.88 294.57 301.05"/><polygon class="cls-131" points="276.5 290.56 270.46 288.21 275.93 291.13 276.5 290.56"/><polygon class="cls-132" points="270.46 288.21 221.16 253.74 232.33 334.66 275.93 291.13 270.46 288.21"/><polygon class="cls-133" points="687.04 399.84 754.77 477.21 751.99 457.11 700.05 345.91 687.04 399.84"/><polygon class="cls-134" points="663.15 189.1 650.56 135.58 593.21 296.4 663.15 189.1"/><polygon class="cls-135" points="382.06 242.72 357.37 209.82 276.5 290.56 297.88 298.84 382.06 242.72"/><polygon class="cls-136" points="700.05 345.91 751.99 457.11 706.49 127.57 650.56 135.58 688.87 149.65 700.05 345.91"/><polygon class="cls-137" points="540.05 197.63 593.21 296.4 650.56 135.58 540.05 197.63 540.05 197.63"/><polygon class="cls-138" points="425.61 300.72 540.05 197.63 516.94 154.7 513.28 155.23 382.06 242.72 425.61 300.72"/><polygon class="cls-139" points="472.23 488.07 305.47 508.83 322.1 544.52 456.91 525.23 472.23 488.07"/><polygon class="cls-140" points="540.05 197.63 540.05 197.63 650.56 135.58 601.06 142.66 540.05 197.63 540.05 197.63"/><polygon class="cls-141" points="601.06 142.66 516.94 154.7 540.05 197.63 601.06 142.66"/><polygon class="cls-142" points="601.58 360 593.21 296.4 495 375.26 601.58 360"/><polygon class="cls-143" points="607.52 405.2 687.04 399.84 605.44 389.39 607.52 405.2"/><polygon class="cls-144" points="616.07 470.17 725.43 486.79 755.5 482.49 754.77 477.21 687.04 399.84 609.72 421.93 616.07 470.17"/><polygon class="cls-145" points="609.72 421.93 687.04 399.84 607.52 405.2 609.72 421.93"/><polygon class="cls-146" points="605.44 389.39 687.04 399.84 700.05 345.91 601.58 360 605.44 389.39"/><polygon class="cls-147" points="576.79 508.07 725.43 486.79 616.07 470.17 576.79 508.07"/><polygon class="cls-148" points="700.05 345.91 593.21 296.4 601.58 360 700.05 345.91"/><polygon class="cls-149" points="520.63 447.37 484.79 457.61 472.23 488.07 616.07 470.17 520.63 447.37"/><polygon class="cls-150" points="352.7 320.1 425.61 300.72 382.06 242.72 297.88 298.84 352.7 320.1"/><polygon class="cls-151" points="472.23 488.07 456.91 525.23 576.79 508.07 616.07 470.17 472.23 488.07"/><polygon class="cls-152" points="451.07 358.23 462.36 353.32 425.61 300.72 396.86 337.21 451.07 358.23"/><polygon class="cls-153" points="505.3 334.64 514.48 298.43 425.61 300.72 462.36 353.32 505.3 334.64"/><polygon class="cls-154" points="396.86 337.21 425.61 300.72 352.7 320.1 396.86 337.21"/><polygon class="cls-155" points="540.05 197.63 540.05 197.63 425.61 300.72 514.48 298.43 540.05 197.63"/><polygon class="cls-156" points="593.21 296.4 540.05 197.63 514.48 298.43 593.21 296.4"/><polygon class="cls-157" points="495 375.26 593.21 296.4 505.3 334.64 495 375.26"/><polygon class="cls-158" points="305.47 508.83 472.23 488.07 484.79 457.61 305.47 508.83"/><polygon class="cls-159" points="505.3 334.64 593.21 296.4 514.48 298.43 505.3 334.64"/></g><path class="cls-160" d="M555.09,538.79c-15.24,3.22-17.21-21.71,0-27.69,7.14-2.48,9.17,4.22,27.44-3.3,20-8.21,59.27,23.94,63.11,26.6S566.46,536.38,555.09,538.79Z"/><path class="cls-7" d="M825.82,397c10.76-23.06,24.33-18.48,24.33,0s3.64,81.08-17.52,79.33,5.57-5.18,6.78-26.72,2.63-51.42-.71-35.34c-4.56,21.9-13.26,30.48-7.21,3.61S820.18,409,825.82,397Z"/><g class="cls-6"><path class="cls-161" d="M491,702.36C647,822.62,826.81,770.75,882,741s251,138.46,251,138.46l-55.15,201.31-737.06-80S259.41,668.33,491,702.36Z"/><g class="cls-162"><path class="cls-163" d="M421.88,678.23C542,822.73,625.2,797.37,746,825s106.5,169.95,104.38,202.42,251.17,128.26,254.41-16.24-24.35-240.29-24.35-240.29L755.73,589Z"/></g></g></g></g></svg>