<?xml version="1.0" encoding="UTF-8"?>
<svg width="37px" height="38px" viewBox="0 0 37 38" version="1.1" xmlns="http://www.w3.org/2000/svg" xmlns:xlink="http://www.w3.org/1999/xlink">
    <!-- Generator: Sketch 57.1 (83088) - https://sketch.com -->
    <title>@</title>
    <desc>Created with Sketch.</desc>
    <g id="General-design" stroke="none" stroke-width="1" fill="none" fill-rule="evenodd">
        <g id="About-me-landing" transform="translate(-128.000000, -2675.000000)" fill="#000000" fill-rule="nonzero">
            <path d="M155.272,2703.328 C152.632,2703.328 151.048,2701.984 150.616,2700.4 C149.416,2702.368 147.208,2703.424 145.048,2703.424 C140.872,2703.424 137.752,2700.016 137.752,2695.12 C137.752,2688.832 142.12,2684.32 147.208,2684.32 C149.032,2684.32 151.144,2685.184 151.864,2687.056 L152.248,2684.944 L156.808,2684.944 L154.312,2696.704 C154.264,2696.944 154.216,2697.232 154.216,2697.568 C154.216,2698.384 154.744,2699.152 155.752,2699.152 C158.104,2699.152 160.456,2695.696 160.456,2691.04 C160.456,2684.272 155.272,2679.568 147.784,2679.568 C139.768,2679.568 133.72,2685.376 133.72,2694.016 C133.72,2701.984 139.096,2708.032 148.168,2708.032 C151.192,2708.032 154.312,2707.216 157,2705.2 L159.304,2708.464 C156.712,2710.816 151.96,2712.304 148.168,2712.304 C136.936,2712.304 128.872,2705.008 128.872,2694.112 C128.872,2682.928 137.416,2675.2 147.736,2675.2 C157.624,2675.2 165.016,2681.968 165.016,2690.992 C165.016,2698.288 160.216,2703.232 155.272,2703.328 Z M150.808,2692.432 C150.808,2690.128 149.656,2688.64 147.544,2688.64 C144.664,2688.64 142.696,2691.472 142.696,2694.688 C142.696,2697.232 143.656,2699.104 146.104,2699.104 C148.744,2699.104 150.712,2696.272 150.808,2692.432 Z" id="@"></path>
        </g>
    </g>
</svg>