<?xml version="1.0" encoding="UTF-8"?>
<svg width="37px" height="38px" viewBox="0 0 37 38" version="1.1" xmlns="http://www.w3.org/2000/svg" xmlns:xlink="http://www.w3.org/1999/xlink">
    <!-- Generator: Sketch 57.1 (83088) - https://sketch.com -->
    <title>Email_Logo</title>
    <desc>Created with Sketch.</desc>
    <g id="Page-1" stroke="none" stroke-width="1" fill="none" fill-rule="evenodd">
        <g id="Email_Logo" fill="#4DCDB1" fill-rule="nonzero">
            <path d="M27.272,28.328 C24.632,28.328 23.048,26.984 22.616,25.4 C21.416,27.368 19.208,28.424 17.048,28.424 C12.872,28.424 9.752,25.016 9.752,20.12 C9.752,13.832 14.12,9.32 19.208,9.32 C21.032,9.32 23.144,10.184 23.864,12.056 L24.248,9.944 L28.808,9.944 L26.312,21.704 C26.264,21.944 26.216,22.232 26.216,22.568 C26.216,23.384 26.744,24.152 27.752,24.152 C30.104,24.152 32.456,20.696 32.456,16.04 C32.456,9.272 27.272,4.568 19.784,4.568 C11.768,4.568 5.72,10.376 5.72,19.016 C5.72,26.984 11.096,33.032 20.168,33.032 C23.192,33.032 26.312,32.216 29,30.2 L31.304,33.464 C28.712,35.816 23.96,37.304 20.168,37.304 C8.936,37.304 0.872,30.008 0.872,19.112 C0.872,7.928 9.416,0.2 19.736,0.2 C29.624,0.2 37.016,6.968 37.016,15.992 C37.016,23.288 32.216,28.232 27.272,28.328 Z M22.808,17.432 C22.808,15.128 21.656,13.64 19.544,13.64 C16.664,13.64 14.696,16.472 14.696,19.688 C14.696,22.232 15.656,24.104 18.104,24.104 C20.744,24.104 22.712,21.272 22.808,17.432 Z" id="@"></path>
        </g>
    </g>
</svg>