<svg id="Layer_1" data-name="Layer 1" xmlns="http://www.w3.org/2000/svg" viewBox="0 0 504 504"><defs><style>.cls-1{fill:#4dcdb1;}</style></defs><path class="cls-1" d="M502.86,153.3c-1-23.9-3.76-47.49-13.36-69.68C471.8,42.69,440.58,17.8,397.66,7c-19-4.77-38.46-5.65-57.94-6.23A32.1,32.1,0,0,1,335,0H169c-5.23.39-10.46.92-15.7,1.14-23.9,1-47.49,3.76-69.68,13.36C42.69,32.2,17.8,63.42,7,106.34c-4.77,19-5.65,38.46-6.23,57.94A32.1,32.1,0,0,1,0,169V335c.39,5.23.92,10.46,1.14,15.7,1,23.9,3.76,47.49,13.36,69.68C32.2,461.31,63.42,486.2,106.34,497c19,4.77,38.46,5.65,57.94,6.23a32.1,32.1,0,0,1,4.72.8H335c5.23-.39,10.46-.92,15.7-1.14,23.9-1,47.49-3.76,69.68-13.36,40.93-17.7,65.82-48.92,76.59-91.84,4.77-19,5.65-38.46,6.23-57.94A32.1,32.1,0,0,1,504,335V169C503.61,163.77,503.08,158.54,502.86,153.3ZM458.39,278.24c-.35,29.3-.82,58.63-2.59,87.86-1.58,26-10.11,49.46-30.54,67.28C410.52,446.25,393,452.91,374,454.82c-19.51,2-39.18,2.83-58.8,3.22q-44.72.87-89.47.35c-29.29-.35-58.62-.82-87.85-2.59-26-1.58-49.46-10.11-67.29-30.54C57.75,410.52,51.1,393,49.18,374c-2-19.51-2.74-39.18-3.22-58.8-.53-21.15-.12-42.31-.12-63.47h-.78c.65-33.8.89-67.62,2.16-101.4a165,165,0,0,1,5.43-36.93C62.56,77.05,87.47,56,124.1,50.3c21.44-3.32,43.42-3.74,65.18-4.3,29.14-.76,58.32-.75,87.47-.39,29.79.36,59.62.81,89.35,2.59,26,1.56,49.46,10.11,67.29,30.54C446.25,93.48,452.9,111,454.82,130c2,19.51,2.83,39.18,3.22,58.8Q458.91,233.5,458.39,278.24Z"/><path class="cls-1" d="M252.47,122.49a129.43,129.43,0,0,0-130,129.29c-.07,71.52,57.69,129.59,129,129.73,71.81.13,129.92-57.67,130-129.29S323.84,122.64,252.47,122.49Zm-.61,213.34c-46.2,0-83.7-37.69-83.69-84.1s37.8-83.6,84.72-83.56c45.8,0,83,38.09,82.94,84.85C335.78,298.34,297.77,335.84,251.86,335.83Z"/><path class="cls-1" d="M386.33,87.16a30.4,30.4,0,1,0,30.51,30.35A30.45,30.45,0,0,0,386.33,87.16Z"/></svg>