<svg id="Layer_1" data-name="Layer 1" xmlns="http://www.w3.org/2000/svg" viewBox="0 0 535.25 535.8"><defs><style>.cls-1{fill:#4dcdb1;}</style></defs><path class="cls-1" d="M502,.72A11.61,11.61,0,0,1,500.13,0h-465C29.69,2,23.81,3.17,18.91,6.05,6.5,13.34,0,24.63,0,39.11q-.08,229,0,458a38.84,38.84,0,0,0,37.89,38.71c1,0,2,0,3,0h454c19.94,0,35.59-12.33,39.65-31.33a46.28,46.28,0,0,0,.7-9.43q0-226.72,0-453.46C535.25,19.59,523.48,5.16,502,.72ZM158.36,456H79.57V201.42h78.79ZM118.51,166c-25-.23-45.6-21.21-45.41-46.28a46.18,46.18,0,0,1,46.54-45.63c25.17.16,45.58,21.2,45.37,46.77C164.8,145.76,143.68,166.27,118.51,166ZM456,451.29c0,1.45-.17,2.91-.28,4.63h-78.8v-5.83c0-42,.16-84-.12-126a148.58,148.58,0,0,0-2.72-27.76c-4.19-21.26-15.62-30.69-37.18-32-23.46-1.37-40.18,10.41-45.56,33.15a122.94,122.94,0,0,0-3.19,27.17c-.33,41.65-.14,83.31-.14,125v6.19h-79.1V201.39h75.82v34.76c5.53-6.54,10-12.79,15.38-18,16.6-16,36.61-23.63,59.74-23.4,14.58.14,28.94,1.4,42.74,6.41,28.45,10.32,42.2,32.51,48.53,60.58,4.05,18,5,36.26,5,54.59C456.18,361.31,456.06,406.3,456,451.29Z"/></svg>