<svg id="Layer_1" data-name="Layer 1" xmlns="http://www.w3.org/2000/svg" viewBox="0 0 1040 520"><defs><style>.cls-1,.cls-10,.cls-15,.cls-16,.cls-9{fill:none;stroke-miterlimit:10;}.cls-1{stroke:#c52c39;stroke-width:3px;}.cls-2,.cls-3{font-size:24px;}.cls-2,.cls-26{fill:#1f3559;}.cls-11,.cls-12,.cls-13,.cls-2,.cls-26,.cls-27,.cls-3{font-family:Akrobat-ExtraBold, Akrobat;font-weight:800;}.cls-27,.cls-3{fill:#1e3559;}.cls-3{letter-spacing:0.1em;}.cls-4{letter-spacing:0.08em;}.cls-5{letter-spacing:0.1em;}.cls-6{letter-spacing:0.1em;}.cls-7{letter-spacing:0.1em;}.cls-8{letter-spacing:0.1em;}.cls-15,.cls-9{stroke:#31429a;}.cls-10,.cls-9{stroke-width:11.71px;}.cls-10,.cls-16{stroke:#ea1d25;}.cls-11,.cls-12{font-size:24.4px;}.cls-11,.cls-12,.cls-13,.cls-14,.cls-19,.cls-35{fill:#231f20;}.cls-12{letter-spacing:0.1em;}.cls-13{font-size:17.8px;}.cls-15{stroke-linecap:round;}.cls-15,.cls-16{stroke-width:12.61px;}.cls-17,.cls-32{fill:#273b93;}.cls-17,.cls-18{opacity:0.5;}.cls-18,.cls-33{fill:#ec2c2a;}.cls-19{font-size:17.74px;letter-spacing:0.11em;}.cls-19,.cls-35{font-family:Montserrat-UltraLight, Montserrat;font-weight:100;}.cls-20{letter-spacing:0.1em;}.cls-21{letter-spacing:0.1em;}.cls-22{letter-spacing:0.09em;}.cls-23{letter-spacing:0.09em;}.cls-24{letter-spacing:0.1em;}.cls-25{letter-spacing:0.09em;}.cls-26{font-size:22.52px;}.cls-27{font-size:27.22px;letter-spacing:0.1em;}.cls-28{letter-spacing:0.08em;}.cls-29{letter-spacing:0.1em;}.cls-30{letter-spacing:0.1em;}.cls-31{letter-spacing:0.1em;}.cls-32{opacity:0.6;}.cls-33{opacity:0.8;}.cls-34{fill:#fff;}.cls-35{font-size:20px;letter-spacing:0.11em;}.cls-36{letter-spacing:0.1em;}.cls-37{letter-spacing:0.09em;}.cls-38{letter-spacing:0.09em;}</style></defs><polygon class="cls-1" points="884.89 85.31 825.49 172.95 944.29 172.95 884.89 85.31"/><line class="cls-1" x1="914.8" y1="173.26" x2="869.62" y2="106.6"/><line class="cls-1" x1="855.2" y1="129.12" x2="884.9" y2="172.95"/><line class="cls-1" x1="840.09" y1="151.04" x2="854.94" y2="172.95"/><line class="cls-1" x1="899.3" y1="106.56" x2="854.3" y2="172.95"/><line class="cls-1" x1="914.14" y1="128.46" x2="883.99" y2="172.95"/><line class="cls-1" x1="929.12" y1="150.57" x2="913.95" y2="172.95"/><text class="cls-2" transform="matrix(0.15, -0.99, 0.99, 0.15, 814.13, 132.84)">L</text><text class="cls-2" transform="matrix(0.33, -0.95, 0.95, 0.33, 815.99, 121.36)">A</text><text class="cls-2" transform="matrix(0.46, -0.89, 0.89, 0.46, 820.73, 108.75)"> </text><text class="cls-2" transform="translate(823.93 102.62) rotate(-56.07)">-</text><text class="cls-2" transform="matrix(0.65, -0.76, 0.76, 0.65, 829.39, 94.84)"> </text><text class="cls-2" transform="matrix(0.75, -0.67, 0.67, 0.75, 833.8, 89.61)">F</text><text class="cls-2" transform="matrix(0.85, -0.52, 0.52, 0.85, 842.76, 81.67)">R</text><text class="cls-2" transform="matrix(0.94, -0.35, 0.35, 0.94, 854.85, 74.55)">A</text><text class="cls-2" transform="matrix(0.99, -0.15, 0.15, 0.99, 867.33, 70.03)">N</text><text class="cls-2" transform="translate(882.33 68) rotate(2.86)">C</text><text class="cls-2" transform="matrix(0.97, 0.23, -0.23, 0.97, 895.92, 68.87)">E</text><text class="cls-2" transform="translate(908.47 72.26) rotate(21.65)"> </text><text class="cls-2" transform="translate(914.85 74.67) rotate(29.9)">A</text><text class="cls-2" transform="matrix(0.77, 0.64, -0.64, 0.77, 926.31, 81.53)">L</text><text class="cls-2" transform="matrix(0.64, 0.77, -0.77, 0.64, 934.76, 88.57)">U</text><text class="cls-2" transform="matrix(0.45, 0.89, -0.89, 0.45, 944.11, 99.64)">M</text><text class="cls-2" transform="translate(952.05 116.31) rotate(76.98)">N</text><text class="cls-2" transform="matrix(0.06, 1, -1, 0.06, 955.05, 131.27)">I</text><text class="cls-3" transform="translate(805.41 203.7)">AM<tspan class="cls-4" x="33.43" y="0">B</tspan><tspan class="cls-5" x="47.59" y="0">A</tspan><tspan x="61.58" y="0">S</tspan><tspan class="cls-6" x="75.31" y="0">S</tspan><tspan class="cls-7" x="88.97" y="0">ADO</tspan><tspan class="cls-8" x="132.96" y="0">R</tspan><tspan x="147.62" y="0">S</tspan></text><polygon class="cls-9" points="417.93 390.5 486.26 462.24 504.21 374.81 417.93 390.5"/><polygon class="cls-10" points="492.41 319.42 474.47 406.85 560.74 391.16 492.41 319.42"/><text class="cls-11" transform="translate(504.26 446.43)">A</text><text class="cls-12" transform="translate(521.91 426.93)">L</text><text class="cls-13" transform="translate(622.73 446.32)">D</text><text class="cls-11" transform="translate(587.68 426.93)">R</text><text class="cls-13" transform="translate(573.74 421.99)">F</text><text class="cls-11" transform="translate(620.45 426.92)">N</text><text class="cls-13" transform="translate(606.15 421.99)">A</text><text class="cls-11" transform="translate(656.73 426.77)">E</text><text class="cls-13" transform="translate(641.19 422.35)">C</text><text class="cls-13" transform="translate(521.1 446.46)">M</text><text class="cls-11" transform="translate(538.19 446.23)">B</text><text class="cls-13" transform="translate(657.81 446.49)">R</text><text class="cls-11" transform="translate(639.12 446.12)">O</text><text class="cls-11" transform="translate(672.59 446.12)">S</text><text class="cls-13" transform="translate(555.28 446.46)">A</text><text class="cls-11" transform="translate(571.79 446.13)">S</text><text class="cls-13" transform="translate(589.78 446.24)">S</text><text class="cls-11" transform="translate(604.55 446.43)">A</text><text class="cls-13" transform="translate(540.13 422.15)">A</text><rect class="cls-14" x="555.2" y="416.18" width="10.11" height="2.97"/><polygon class="cls-15" points="425.98 116.72 502.85 197.73 523.04 98.99 425.98 116.72"/><polygon class="cls-16" points="560.63 60.94 540.44 159.68 637.5 141.95 560.63 60.94"/><path class="cls-14" d="M527.85,193.15l.36,2-5.74,1-2.13-11.75,2.06-.37,1.78,9.78Z"/><path class="cls-14" d="M535.06,191.67l-2.75.5-.09,2.21-2.15.39.76-12.27,2.22-.4,5,11.23-2.15.38Zm-.78-1.89-.86-2.1c-.32-.77-.74-2-1-2.8h0c0,.81.1,2.13.07,3l-.07,2.27Z"/><path class="cls-14" d="M544.67,205.76l-2.75.5-.09,2.21-2.15.39.76-12.27,2.22-.4,5,11.22-2.14.39Zm-.78-1.89-.86-2.1c-.32-.77-.73-2-1-2.8h0c0,.81.1,2.13.07,3l-.07,2.27Z"/><path class="cls-14" d="M558.08,193.39l2.13,11.75-2,.37-.66-3.68c-.2-1.38-.4-2.73-.57-4.07l-.09,0c-.16,1-.35,2.16-.53,3.29l-.41,2.22-2,.37-1.17-1.94c-.56-1-1.12-2-1.65-2.89l-.08.05c.31,1.32.61,2.65.91,4l.66,3.67-2,.37-2.13-11.75,2.08-.38,2.75,4.25c.36.58,1,1.58,1.2,2h.07c.06-.52.28-1.67.42-2.33l1.06-4.95Z"/><path class="cls-14" d="M570.43,199.73a3.29,3.29,0,0,1-2.8,4.07l-3.54.64L562,192.69l3.44-.62a3.06,3.06,0,0,1,3.7,2.71,3.13,3.13,0,0,1-.63,2.64A2.82,2.82,0,0,1,570.43,199.73Zm-6-5.47.52,2.89L566,197c.84-.16,1.16-.75,1-1.71s-.68-1.33-1.58-1.17Zm3.94,5.86a1.46,1.46,0,0,0-1.92-1.25l-1.15.21.55,3,1.16-.21C568,201.71,568.5,201.11,568.32,200.12Z"/><path class="cls-14" d="M578,199.72l-2.76.5-.08,2.22-2.15.39.76-12.27,2.22-.41,5,11.23-2.15.39Zm-.78-1.88-.86-2.1c-.32-.78-.74-2-1-2.8h-.05c.05.8.1,2.13.07,3l-.07,2.27Z"/><path class="cls-14" d="M582.44,197.68l2.12-.38a1.38,1.38,0,0,0,1.74,1.28,1.26,1.26,0,0,0,1.15-1.57c-.38-2.13-5.15-1.44-5.79-5a3.07,3.07,0,0,1,2.77-3.66,3.2,3.2,0,0,1,4,2.78l-2.12.38c-.19-.93-.74-1.3-1.53-1.16a1.1,1.1,0,0,0-1,1.33c.37,2.05,5.17,1.25,5.83,4.94a3.3,3.3,0,0,1-3,4A3.34,3.34,0,0,1,582.44,197.68Z"/><path class="cls-14" d="M592,195.94l2.12-.38a1.37,1.37,0,0,0,1.74,1.27,1.26,1.26,0,0,0,1.16-1.56c-.39-2.13-5.15-1.44-5.8-5a3.08,3.08,0,0,1,2.77-3.66,3.2,3.2,0,0,1,4,2.78l-2.12.38c-.18-.94-.74-1.3-1.52-1.16a1.1,1.1,0,0,0-1,1.33c.37,2,5.17,1.25,5.84,4.94a3.31,3.31,0,0,1-3,3.95A3.35,3.35,0,0,1,592,195.94Z"/><path class="cls-14" d="M606.9,194.48l-2.75.5-.09,2.21-2.15.39.76-12.27,2.22-.4,5,11.22-2.15.39Zm-.78-1.89-.86-2.1c-.32-.77-.74-2-1-2.8h0c0,.81.1,2.13.07,3l-.07,2.27Z"/><path class="cls-14" d="M610.63,183.87l3.07-.56c2.33-.42,3.94.72,4.38,3.12l.74,4.12c.44,2.41-.66,4.09-3,4.5l-3.1.57Zm4.88,9.22c1-.19,1.46-.94,1.23-2.18l-.74-4.1c-.22-1.21-.89-1.73-1.91-1.54l-1,.19,1.42,7.82Z"/><path class="cls-14" d="M622.06,190l-.76-4.2c-.45-2.48.66-4.22,3-4.65s4,.83,4.41,3.31l.76,4.2c.45,2.48-.65,4.22-3,4.64S622.51,192.51,622.06,190Zm5.27-1-.76-4.19c-.23-1.28-.88-1.89-1.92-1.7s-1.45,1-1.22,2.27l.76,4.19c.23,1.28.9,1.89,1.94,1.7S627.56,190.35,627.33,189.07Z"/><path class="cls-14" d="M636,187.18l-.94.17.74,4.09-2.06.38-2.13-11.75,3.22-.58c2.3-.42,3.88.73,4.31,3.13a3.62,3.62,0,0,1-1.21,3.83l3.18,4-2.27.41Zm-1.3-1.79,1.15-.21c1-.18,1.4-.93,1.18-2.16s-.87-1.75-1.86-1.57l-1.14.21Z"/><path class="cls-14" d="M642.62,186.77l2.12-.38a1.38,1.38,0,0,0,1.74,1.28,1.27,1.27,0,0,0,1.16-1.57c-.39-2.13-5.15-1.44-5.8-5a3.08,3.08,0,0,1,2.77-3.66,3.21,3.21,0,0,1,4,2.78l-2.12.38c-.18-.93-.74-1.3-1.53-1.16a1.1,1.1,0,0,0-1,1.33c.37,2.05,5.17,1.25,5.84,4.94a3.31,3.31,0,0,1-3,4A3.34,3.34,0,0,1,642.62,186.77Z"/><rect class="cls-17" x="59.72" y="121.52" width="49.87" height="12.53"/><polyline class="cls-17" points="100.98 134.05 59.72 134.05 59.72 84.18"/><polygon class="cls-18" points="149 78.92 117.17 134.05 180.83 134.05 149 78.92"/><polyline class="cls-18" points="117.17 134.05 180.83 134.05 158.66 95.66"/><text class="cls-19" transform="translate(194.29 92.09)">L<tspan class="cls-20" x="10.82" y="0">A FRANCE</tspan><tspan class="cls-21"><tspan x="0" y="21.29">ALUMNI</tspan><tspan x="0" y="42.57">AMB</tspan><tspan class="cls-22" x="46.81" y="42.57">A</tspan><tspan x="60.81" y="42.57">S</tspan><tspan class="cls-23" x="73.21" y="42.57">S</tspan><tspan class="cls-24" x="85.45" y="42.57">A</tspan><tspan class="cls-25" x="99.61" y="42.57">D</tspan><tspan x="115.52" y="42.57">ORS</tspan></tspan></text><text class="cls-26" transform="matrix(0.12, -0.99, 0.99, 0.12, 817.46, 392.17)">F</text><text class="cls-26" transform="translate(818.82 381.03) rotate(-72.72)">R</text><text class="cls-26" transform="matrix(0.48, -0.88, 0.88, 0.48, 822.9, 368.53)">A</text><text class="cls-26" transform="matrix(0.64, -0.77, 0.77, 0.64, 828.89, 357.59)">N</text><text class="cls-26" transform="translate(838.15 346.85) rotate(-38.61)">C</text><text class="cls-26" transform="translate(848.27 339) rotate(-27.9)">E</text><text class="cls-26" transform="matrix(0.94, -0.34, 0.34, 0.94, 859.18, 333.59)"> </text><text class="cls-26" transform="translate(865.15 331.33) rotate(-11.59)">A</text><text class="cls-26" transform="translate(877.47 329.02) rotate(-1.5)">L</text><text class="cls-26" transform="matrix(0.99, 0.15, -0.15, 0.99, 887.79, 328.71)">U</text><text class="cls-26" transform="translate(901.21 330.67) rotate(21.89)">M</text><text class="cls-26" transform="translate(917.16 337.47) rotate(35.46)">N</text><text class="cls-26" transform="translate(928.57 346.1) rotate(44.77)">I</text><text class="cls-26" transform="translate(933.85 351.52) rotate(50.81)"> </text><text class="cls-26" transform="matrix(0.51, 0.86, -0.86, 0.51, 938, 356.36)">U</text><text class="cls-26" transform="matrix(0.33, 0.94, -0.94, 0.33, 944.74, 368.24)">S</text><text class="cls-26" transform="matrix(0.15, 0.99, -0.99, 0.15, 948.63, 379.73)">A</text><text class="cls-27" transform="translate(793.93 459.44)">AM<tspan class="cls-28" x="37.91" y="0">B</tspan><tspan class="cls-29" x="53.97" y="0">A</tspan><tspan x="69.84" y="0">S</tspan><tspan class="cls-30" x="85.4" y="0">S</tspan><tspan x="100.89" y="0">ADO</tspan><tspan class="cls-31" x="150.78" y="0">R</tspan><tspan x="167.41" y="0">S</tspan></text><rect class="cls-32" x="840.25" y="365.53" width="52.59" height="52.59" transform="translate(530.87 -497.97) rotate(45)"/><rect class="cls-33" x="876.75" y="366.21" width="52.59" height="52.59" transform="translate(542.04 -523.59) rotate(45)"/><path class="cls-34" d="M900.55,382.3h-6.29l-9.62,28.24L881.38,420l6.3,2.18,3.81-11h0l1.16-3.43h9.08l1.14,3.5h7ZM894.93,401l2.4-7,2.28,7Z"/><polygon class="cls-34" points="872.52 385.9 872.52 363.63 872.5 363.63 872.5 354.4 865.85 354.4 865.85 373.51 865.87 373.51 865.87 392.54 883.06 392.54 883.06 385.9 872.52 385.9"/><polyline class="cls-32" points="157.49 379.09 62.43 379.09 62.43 284.3"/><polygon class="cls-33" points="120.63 304.55 71.19 390.2 170.08 390.2 120.63 304.55"/><polygon class="cls-34" points="95.15 361.8 95.15 292.56 77.22 292.56 77.22 361.8 77.22 379.45 95.15 379.45 170.08 379.45 170.08 361.8 95.15 361.8"/><text class="cls-35" transform="translate(59.72 421.7)">L<tspan class="cls-36" x="12.2" y="0">A FRANCE</tspan><tspan class="cls-36"><tspan x="0" y="24">ALUMNI</tspan><tspan x="0" y="48">AMB</tspan><tspan class="cls-37" x="52.78" y="48">A</tspan><tspan x="68.56" y="48">S</tspan><tspan class="cls-37" x="82.54" y="48">S</tspan><tspan x="96.34" y="48">A</tspan><tspan class="cls-38" x="112.3" y="48">D</tspan><tspan x="130.24" y="48">ORS</tspan></tspan></text></svg>