<?xml version="1.0" encoding="UTF-8"?>
<svg width="1040px" height="270px" viewBox="0 0 1040 270" version="1.1" xmlns="http://www.w3.org/2000/svg" xmlns:xlink="http://www.w3.org/1999/xlink">
    <!-- Generator: Sketch 57.1 (83088) - https://sketch.com -->
    <title>Desktop HD Copy 3</title>
    <desc>Created with Sketch.</desc>
    <defs>
        <path d="M12.1904762,2.84217094e-14 L12.1904762,2.84217094e-14 C18.6582942,2.84217094e-14 23.9014966,5.26171759 23.9014966,11.7523739 L23.9014966,28.6952553 L0.474557823,28.6952553 L0.474557823,11.7523739 C0.474557823,8.63459902 1.70906599,5.64459186 3.9063678,3.44045306 C6.10366961,1.23631427 9.08367193,-0.00130293338 12.1904762,2.84217094e-14 L12.1904762,2.84217094e-14 Z" id="path-1"></path>
        <path d="M0.065,7.10542736e-15 L17.535,7.10542736e-15 L17.535,20.8016949 C17.535,25.7076684 13.6242073,29.6847458 8.8,29.6847458 L8.8,29.6847458 C3.97579271,29.6847458 0.065,25.7076684 0.065,20.8016949 L0.065,7.10542736e-15 Z" id="path-3"></path>
        <path d="M10.9475305,25.6223911 C18.3847272,26.233421 25.2093297,23.9054476 34.7425096,27.5160788 C41.8303757,30.1924908 47.7031791,36.8835207 48.8017983,38.9236535 C49.9004176,40.9637864 53.9911289,26.384916 53.9911289,26.384916 C53.9911289,26.384916 54.9530535,-3.00511722 50.4320075,0.252025642 C45.9109615,3.5091685 34.8994552,12.3059791 27.558451,11.6394011 C20.2174468,10.972823 8.14276066,11.6040522 4.42163095,12.9372084 C-0.387992481,14.6693014 -3.69397574,24.4306303 10.9475305,25.6223911 Z" id="path-5"></path>
    </defs>
    <g id="Desktop-HD-Copy-3" stroke="none" stroke-width="1" fill="none" fill-rule="evenodd">
        <text id="Donors" font-family="Montserrat-SemiBold, Montserrat" font-size="24" font-weight="500" letter-spacing="1" fill="#062E4A">
            <tspan x="84.06" y="218">Donors</tspan>
        </text>
        <path d="M130.174609,171.03899 C150.052149,216.924393 219.256969,161.104982 227.396805,105.768117 C235.536642,50.4312525 159.156922,80.2136171 127.176439,54.8814267 C95.1959555,29.5492363 34.9759847,61.8608511 67.2130325,108.22417 C99.4500803,154.58749 110.29707,125.153587 130.174609,171.03899 Z" id="Oval" fill="#4DCDB1"></path>
        <g id="donor" transform="translate(79.000000, 48.000000)">
            <path d="M47.9671305,42.6283897 C47.9671305,49.6826743 23.7237697,52.302696 15.1553374,56.3266537 C6.58690509,60.3506115 -0.47994538,75.9422119 0.0255376129,89.2746616 C0.531020606,102.607111 75.5258651,108.341498 88.6337329,96.7738556 C101.741601,85.2062129 91.1561921,54.9227176 88.6337329,52.7179447 C86.1112736,50.5131717 63.8155091,50.9877417 66.5659312,58.5512004 C69.3163534,66.1146591 70.1786479,101.114193 73.6129588,101.400913 C118.709971,105.177699 97.6630467,72.2939554 93.2375927,58.5660307 C90.2096504,49.1735003 71.6703183,56.7320155 71.6703183,43.1276768 C71.6703183,37.7591042 69.2221948,32 69.2221948,32 L47.9671305,42.6283897 Z" id="Path" stroke="#062E4A" fill="#FFFFFF" fill-rule="nonzero"></path>
            <path d="M48,37 L72,37 L72,54.1316189 C71.9916918,60.6906962 66.6196072,66.0027473 59.9974911,66 L59.9974911,66 C53.3714597,66 48,60.6796688 48,54.1167089 L48,37 Z" id="Path" stroke="#062E4A" fill="#FFFFFF" fill-rule="nonzero"></path>
            <path d="M49,37.0202166 C50.3344978,50.2469187 67.0477283,52.3595521 72.5531472,50.3378934 C78.058566,48.3162347 72.5531472,37 72.5531472,37 L49,37.0202166 Z" id="Path" fill="#062E4A" fill-rule="nonzero"></path>
            <g id="Group-2" transform="translate(43.000000, 0.000000)">
                <path d="M23.5206244,8 L10.9204741,8 C7.33116177,8 4.42144921,10.9163949 4.42144921,14.5139503 L4.42144921,26.2961747 C4.42154637,26.4248841 4.34233016,26.540282 4.22236298,26.5861928 C4.10239581,26.6321037 3.96660438,26.5989881 3.88109188,26.5029668 C2.27966927,24.7796995 -0.127376996,24.4153516 0.00525616559,28.0834491 C0.128064648,31.5004419 1.15474356,33.4305012 3.86635486,34.4053781 C4.20197348,34.531292 4.4235948,34.8536758 4.42144921,35.2128519 L4.42144921,35.80861 C4.42144921,41.989444 9.42052453,47 15.5871965,47 L18.8588144,47 C25.0158923,46.9864249 30,41.9798428 30,35.80861 L30,14.5139503 C30,10.924072 27.1022609,8.01085375 23.5206244,8 Z" id="Path" stroke="#062E4A" fill="#FFFFFF" fill-rule="nonzero"></path>
                <path d="M22.8115183,26 C22.8115183,26 23.2356021,32.1955746 22.8115183,31.9952445 C22.1715076,31.7721163 21.5631495,31.4767564 21,31.1157465" id="Path" stroke="#062E4A" stroke-linecap="round"></path>
                <path d="M18,36 C19.634169,37.3604026 22.1179201,37.3059865 23,36" id="Path" stroke="#062E4A" stroke-linecap="round"></path>
                <circle id="Oval" stroke="#062E4A" fill="#FFFFFF" fill-rule="nonzero" cx="14" cy="25" r="7"></circle>
                <circle id="Oval" stroke="#062E4A" fill="#FFFFFF" fill-rule="nonzero" cx="30" cy="25" r="7"></circle>
                <path d="M14,23.202861 C15.0779221,22.6182247 16.7186147,22.7074065 17,23.202861" id="Path" stroke="#062E4A" stroke-linecap="round"></path>
                <path d="M28,23.202861 C26.9264069,22.6182247 25.2857143,22.7074065 25,23.202861" id="Path" stroke="#062E4A" stroke-linecap="round"></path>
                <path d="M21,25 L23,25" id="Path" stroke="#062E4A" stroke-linecap="round"></path>
                <path d="M7,25 C7,25 4.22477064,23.3249462 3.49082569,24.3106775 C3.31650923,24.5226063 3.15248371,24.752966 3,25" id="Path" stroke="#062E4A" stroke-linecap="round"></path>
                <path d="M28.7677617,8.88114334 C29.5417123,11.3483121 28.4410942,13.7913402 24.5612899,13.6126998 C20.6814856,13.4340594 8.13745491,11.6814523 7.47406868,13.6126998 C6.81068244,15.5439474 7.00668292,22.0860484 4.77529285,21.9991423 C2.54390279,21.9122362 2.4886206,12.2897953 4.20236838,9.24808037 C6.49909194,5.15383557 26.7273465,2.36318286 28.7677617,8.88114334 Z" id="Path" fill="#062E4A" fill-rule="nonzero"></path>
                <path d="M15.2590329,0.123928933 C21.1411965,-0.766192785 24.4301482,3.38259293 24.9896592,4.78939449 C25.5491702,6.19619606 3.21738294,13 3.21738294,13 C2.6388033,10.4639593 3.23008213,7.78950698 4.81320564,5.78182905 C7.53291569,2.14972319 12.2182122,0.574105435 15.2590329,0.123928933 Z" id="Path" stroke="#062E4A" fill="#FFFFFF" fill-rule="nonzero"></path>
                <path d="M2.75160205,16.590956 C2.856973,16.8017566 3.05102285,16.9490893 3.27603074,16.9891295 C3.50103863,17.0291696 3.7310822,16.9573044 3.89773413,16.7949102 C6.40551033,14.2811743 12.8904628,8.85599172 18.1019352,9.02935281 C23.8570857,9.22310934 29.0097821,9.22310934 29,8.19314046 C28.9901901,7.16317158 28.456308,4.06816609 25.9436338,4.00697982 C23.4309596,3.94579355 13.1500568,4.2058352 7.51735641,8.13195419 C2.30588401,11.7725372 0.958933908,13.1492283 2.75160205,16.590956 Z" id="Path" stroke="#062E4A" fill="#FFFFFF" fill-rule="nonzero"></path>
            </g>
            <circle id="Oval" fill="#062E4A" fill-rule="nonzero" cx="59.5" cy="25.5" r="1"></circle>
            <circle id="Oval" fill="#062E4A" fill-rule="nonzero" cx="69.5" cy="25.5" r="1"></circle>
            <path d="M70.9131568,33.0039489 L79.4596459,33.0108379 C80.8718797,33.0119763 82.0164386,34.1565315 82.0175815,35.5687653 L82.0323983,53.8775574 C82.0335425,55.2914059 80.8883194,56.4384841 79.4744709,56.4396283 C79.4730925,56.4396294 79.4717141,56.4396294 79.4703356,56.4396283 L70.9238466,56.4327392 C69.5116128,56.4316009 68.3670539,55.2870457 68.365911,53.8748118 L68.3510941,35.5660198 C68.3499499,34.1521713 69.495173,33.0050931 70.9090215,33.0039489 C70.9104,33.0039478 70.9117784,33.0039478 70.9131568,33.0039489 Z" id="Rectangle" stroke="#062E4A" fill="#062E4A" fill-rule="nonzero" transform="translate(75.191746, 44.721789) rotate(-11.060000) translate(-75.191746, -44.721789) "></path>
            <circle id="Oval" fill="#FFFFFF" cx="70" cy="37" r="1"></circle>
            <path d="M75.9172866,70.6506425 C75.3464454,69.6934847 74.17498,65.5016245 73.2616341,60.2151686 C72.5220224,55.9251384 69.2359627,54.3887775 67.3794878,51.7185527 C65.8655177,49.5440866 64.8429674,43.4919044 68.496351,43.3741004 C71.8171576,43.2661134 80.85134,42.0242625 81.1590979,39.5012928 C81.5065664,36.6003685 84.3260255,47.0898359 84.4401938,50.4816104 C84.554362,53.8733848 83.3928243,55.3901117 83.5764862,57.0884532 C83.9884847,60.8679993 85.8499233,65.5408926 85.9640916,66.5422268 C86.6987394,72.7760236 75.9172866,70.6506425 75.9172866,70.6506425 Z" id="Path" stroke="#062E4A" fill="#FFFFFF" fill-rule="nonzero"></path>
            <path d="M93.7100446,101.136351 C100.410776,86.7494785 90.5187539,55.385797 88.0273935,53.1601483 C85.5360331,50.9344997 63.5151482,51.4135631 66.231661,59.0486359 C68.9481738,66.6837087 70.0249897,98.9107023 71.2731172,102.14438 C72.056256,104.225312 86.2751203,117.055228 93.7100446,101.136351 Z" id="Path" stroke="#062E4A" fill="#FFFFFF" fill-rule="nonzero"></path>
        </g>
        <text id="Campaign-organizers" font-family="Montserrat-SemiBold, Montserrat" font-size="24" font-weight="500" letter-spacing="1" fill="#062E4A">
            <tspan x="381.628" y="218">Campaign organizers</tspan>
        </text>
        <text id="Administrators" font-family="Montserrat-SemiBold, Montserrat" font-size="24" font-weight="500" letter-spacing="1" fill="#062E4A">
            <tspan x="812.036" y="218">Administrators</tspan>
        </text>
        <path d="M520.706064,145.677955 C583.14989,183.883077 614.246876,187.137623 613.997025,155.441593 C613.622247,107.897546 584.514004,18.6108406 534.67139,51.8456185 C484.828776,85.0803964 413.281809,-3.20538217 419.363559,69.8623096 C423.418059,118.574104 457.198894,143.845986 520.706064,145.677955 Z" id="Oval-Copy" fill="#D8EFF4"></path>
        <path d="M937.902857,155.869502 C957.475128,195.349582 974,143.169849 974,108.393456 C974,73.617063 945.924444,75.7845111 910.83,45.4252264 C875.735555,15.0659418 824,45.6311833 824,80.4075761 C824,115.183969 918.330586,116.389422 937.902857,155.869502 Z" id="Oval-Copy-2" fill="#FEE0AD"></path>
        <g id="administrator" transform="translate(854.000000, 45.000000)">
            <path d="M63.9748099,44.4765005 C63.9748099,51.4299731 87.7420989,54.0125523 96.1422711,57.9790042 C104.542443,61.945456 111.470521,77.3142386 110.974964,90.4561557 C110.479407,103.598073 45.7169457,101.751285 38.832594,102.409112 C-16.9806961,107.769182 1.5735305,75.2189385 8.9728725,63.0905618 C15.2887915,52.7699907 40.7370865,58.378573 40.7370865,44.9686524 C40.7370865,39.6768014 43.1371357,34 43.1371357,34 L63.9748099,44.4765005 Z" id="Path" stroke="#062E4A" fill="#FFFFFF" fill-rule="nonzero"></path>
            <path d="M52.5024043,38 L52.5024043,38 C58.8523511,38 64,43.3175972 64,49.8771846 L64,67 L41,67 L41,49.8771846 C41,46.7262988 42.2120102,43.7045376 44.3692678,41.4769908 C46.5265253,39.249444 49.4522193,37.9986832 52.5024043,38 L52.5024043,38 Z" id="Path" stroke="#062E4A" fill="#FFFFFF" fill-rule="nonzero" transform="translate(52.500000, 52.500000) rotate(180.000000) translate(-52.500000, -52.500000) "></path>
            <g id="Path" transform="translate(40.000000, 38.000000)">
                <mask id="mask-2" fill="white">
                    <use xlink:href="#path-1"></use>
                </mask>
                <use id="Mask" stroke="#062E4A" fill="#FFFFFF" fill-rule="nonzero" transform="translate(12.188027, 14.347628) rotate(180.000000) translate(-12.188027, -14.347628) " xlink:href="#path-1"></use>
                <path d="M23.9014966,0 C22.5986395,12.8632203 5.95047619,14.9227119 0.474557823,12.9713559 C-5.00136054,11.02 0.474557823,0 0.474557823,0 L23.9014966,0 Z" fill="#062E4A" fill-rule="nonzero" mask="url(#mask-2)"></path>
            </g>
            <path d="M45.494771,11 L58.0866739,11 C61.6736368,11 64.5814449,13.8416155 64.5814449,17.3469259 L64.5814449,28.827042 C64.5813478,28.9524512 64.6605121,29.0648902 64.7804008,29.1096238 C64.9002894,29.1543574 65.035992,29.122091 65.1214485,29.0285318 C66.7218229,27.3494508 69.1272936,26.9944451 68.9947473,30.5684888 C68.8720192,33.8930691 67.8460123,35.7784371 65.141085,36.7283171 C64.8037517,36.8494157 64.5800577,37.1638956 64.5814449,37.5150865 L64.5814449,38.1099609 C64.5733219,44.1248182 59.5828873,48.997359 53.4279153,49 L50.1535296,49 C43.9985576,48.997359 39.008123,44.1248182 39,38.1099609 L39,17.3469259 C39,13.8416155 41.907808,11 45.494771,11 Z" id="Path" stroke="#062E4A" fill="#FFFFFF" fill-rule="nonzero"></path>
            <path d="M47.1895954,28 C47.1895954,28 46.7630058,34.1954192 47.1895954,33.995252 C47.8301639,33.7668889 48.4382331,33.4651688 49,33.0969406" id="Path" stroke="#062E4A" stroke-linecap="round"></path>
            <path d="M52,37 C50.365831,38.3604026 47.8820799,38.3059865 47,37" id="Path" stroke="#062E4A" stroke-linecap="round"></path>
            <path d="M35,21 L47,21 L47,27.0516432 C47,27.5683795 46.7686609,28.0639517 46.3568747,28.4293395 C45.9450885,28.7947273 45.3865865,29 44.8042328,29 L37.0740741,29 C36.5239954,29 35.9964466,28.8061038 35.6074822,28.4609665 C35.2185179,28.1158291 35,27.6477224 35,27.1596244 L35,21 Z" id="Path" stroke="#062E4A" stroke-width="0.81"></path>
            <path d="M49,21 L61,21 L61,27.3098592 C61,28.2432982 60.1502066,29 59.1019332,29 L50.8137083,29 C49.8120248,29 49,28.2769294 49,27.3849765 L49,21 Z" id="Path" stroke="#062E4A" stroke-width="0.81" fill="#FFFFFF" fill-rule="nonzero"></path>
            <path d="M55,24.9074974 C53.9220779,23.7374974 52.2813853,23.9074974 52,24.9074974" id="Path" stroke="#062E4A" stroke-linecap="round"></path>
            <path d="M41,24.9074974 C42.0779221,23.7374974 43.7142857,23.9074974 44,24.9074974" id="Path" stroke="#062E4A" stroke-linecap="round"></path>
            <circle id="Oval" fill="#062E4A" fill-rule="nonzero" cx="53.5" cy="27.5" r="1"></circle>
            <circle id="Oval" fill="#062E4A" fill-rule="nonzero" cx="42.5" cy="27.5" r="1"></circle>
            <path d="M49,21.5 L47,21.5" id="Path" stroke="#062E4A" stroke-linecap="round"></path>
            <path d="M59,21 C59,21 63.7826748,24.8277512 64.5121581,25.5215311 C64.6854148,25.668634 64.8484432,25.8285301 65,26" id="Path" stroke="#062E4A" stroke-linecap="round"></path>
            <path d="M36.4116367,8.17038901 C35.6571105,10.6925228 34.9417804,17.2964662 43.9764975,15.4258425 C47.6854351,14.6608117 59.9881329,13.4515694 60.6348697,15.4258425 C61.2816065,17.4001155 61.0856257,24.0879655 63.2610131,23.9991232 C65.4364005,23.9102809 65.5049938,14.0635941 63.8342571,10.9442426 C61.5853769,6.77852651 38.4057419,1.50721746 36.4116367,8.17038901 Z" id="Path" fill="#062E4A" fill-rule="nonzero"></path>
            <path d="M42.9953059,8 C35.904013,6.32466491 37.4711495,0.710409972 40.8992608,0.0562763283 C44.327372,-0.597857315 45.659438,4.63991783 50.008242,5.94818512 C54.3570459,7.25645241 42.9953059,8 42.9953059,8 Z" id="Path" fill="#062E4A" fill-rule="nonzero"></path>
            <path d="M33,54 L33,84.9028107 C33.0049019,85.3563139 33.2888864,85.7611676 33.7170406,85.9250372 C34.1451948,86.0889068 34.6312247,85.9787646 34.9442313,85.6469361 L52,67.1302139" id="Path" stroke="#062E4A"></path>
            <path d="M71,50 L71,83.7603592 C71,84.3371323 70.648277,84.8557973 70.1118879,85.0700055 C69.5754987,85.2842136 68.9625224,85.1508033 68.5641026,84.73314 L52.4871795,67.062576 C52.4057832,66.9838656 52.2856634,66.9602459 52.1804509,67.0022627 C52.0752385,67.0442795 52.004571,67.1440905 52,67.2571322 L52,102" id="Path" stroke="#062E4A"></path>
            <circle id="Oval" stroke="#062E4A" fill="#FFFFFF" fill-rule="nonzero" cx="55" cy="73" r="1"></circle>
            <circle id="Oval" stroke="#062E4A" fill="#FFFFFF" fill-rule="nonzero" cx="55" cy="84" r="1"></circle>
            <circle id="Oval" stroke="#062E4A" fill="#FFFFFF" fill-rule="nonzero" cx="55" cy="97" r="1"></circle>
            <path d="M84.8170305,55 C82.4422302,63.8466829 86,100 86,100" id="Path" stroke="#062E4A" fill="#FFFFFF" fill-rule="nonzero" stroke-linecap="round"></path>
            <path d="M20,57 C27.5415454,69.7663671 22.1038839,102 22.1038839,102" id="Path" stroke="#062E4A" fill="#FFFFFF" fill-rule="nonzero" stroke-linecap="round"></path>
            <circle id="Oval" fill="#062E4A" fill-rule="nonzero" cx="41.5" cy="41.5" r="1"></circle>
            <circle id="Oval" fill="#062E4A" fill-rule="nonzero" cx="41.5" cy="37.5" r="1"></circle>
            <circle id="Oval" fill="#062E4A" fill-rule="nonzero" cx="43.5" cy="44.5" r="1"></circle>
            <circle id="Oval" fill="#062E4A" fill-rule="nonzero" cx="45.5" cy="41.5" r="1"></circle>
            <circle id="Oval" fill="#062E4A" fill-rule="nonzero" cx="49.5" cy="47.5" r="1"></circle>
            <circle id="Oval" fill="#062E4A" fill-rule="nonzero" cx="49.5" cy="44.5" r="1"></circle>
            <circle id="Oval" fill="#062E4A" fill-rule="nonzero" cx="51.5" cy="40.5" r="1"></circle>
            <circle id="Oval" fill="#062E4A" fill-rule="nonzero" cx="52.5" cy="43.5" r="1"></circle>
            <circle id="Oval" fill="#062E4A" fill-rule="nonzero" cx="54.5" cy="45.5" r="1"></circle>
            <circle id="Oval" fill="#062E4A" fill-rule="nonzero" cx="55.5" cy="43.5" r="1"></circle>
            <circle id="Oval" fill="#062E4A" fill-rule="nonzero" cx="55.5" cy="39.5" r="1"></circle>
            <circle id="Oval" fill="#062E4A" fill-rule="nonzero" cx="60.5" cy="43.5" r="1"></circle>
            <circle id="Oval" fill="#062E4A" fill-rule="nonzero" cx="59.5" cy="40.5" r="1"></circle>
            <circle id="Oval" fill="#062E4A" fill-rule="nonzero" cx="61.5" cy="37.5" r="1"></circle>
            <circle id="Oval" fill="#062E4A" fill-rule="nonzero" cx="58.5" cy="36.5" r="1"></circle>
            <circle id="Oval" fill="#062E4A" fill-rule="nonzero" cx="57.5" cy="46.5" r="1"></circle>
            <circle id="Oval" fill="#062E4A" fill-rule="nonzero" cx="52.5" cy="47.5" r="1"></circle>
        </g>
        <g id="campaign-organizer" transform="translate(471.000000, 35.000000)">
            <path d="M38.8214231,60.8299743 C38.8214231,68.0180549 31.8881295,73.6798647 22.2241537,74.5160395 C4.47471902,76.0574219 0.470056757,104.567959 0.500338602,109.41878 C0.586795962,123.019213 42.897144,113.891811 65.0826684,120.717213 C86.1769351,127.205124 78.9695581,144.200628 85.1567359,141.762624 C99.8455732,135.96481 84.8572745,94.261853 81.6647111,84.4191694 C78.5685843,74.8484945 55.9820861,79.2610794 55.9820861,65.4037495 C55.9820861,59.9333532 52.4291538,50 52.4291538,50 L38.8214231,60.8299743 Z" id="Path" stroke="#062E4A" fill="#FFFFFF" fill-rule="nonzero"></path>
            <path d="M38.5003386,54 L56.5003386,54 L56.5003386,74.3218568 C56.5003386,79.1146629 52.4709014,83 47.5003386,83 L47.5003386,83 C42.5297759,83 38.5003386,79.1146629 38.5003386,74.3218568 L38.5003386,54 Z" id="Path" stroke="#062E4A" stroke-width="0.85" fill="#FFFFFF" fill-rule="nonzero"></path>
            <g id="Path" transform="translate(38.500339, 53.000000)">
                <mask id="mask-4" fill="white">
                    <use xlink:href="#path-3"></use>
                </mask>
                <use id="Mask" stroke="#062E4A" stroke-width="0.85" fill="#FFFFFF" fill-rule="nonzero" xlink:href="#path-3"></use>
                <path d="M1.20792265e-13,0.249152542 C0.97,13.5559322 13.385,15.6864407 17.47,13.6677966 C21.555,11.6491525 17.47,0.249152542 17.47,0.249152542 L1.20792265e-13,0.249152542 Z" fill="#062E4A" fill-rule="nonzero" mask="url(#mask-4)"></path>
            </g>
            <path d="M54.0250832,23.0882612 L41.3823708,25.1296188 C39.6514457,25.4081497 38.0999521,26.3791983 37.0700086,27.8286396 C36.0400651,29.2780809 35.6162612,31.0868719 35.8920495,32.8561575 L37.7687412,44.930788 C37.7855031,45.05911 37.7265576,45.1854431 37.6184655,45.2528614 C37.5103735,45.3202797 37.3735394,45.3160566 37.269621,45.242095 C35.3879382,43.7110768 32.9123025,43.7416971 33.6260442,47.482485 C34.2948652,50.9578964 35.6225247,52.7696013 38.5074389,53.3258713 C38.8637266,53.4013413 39.1376349,53.6935833 39.1962247,54.06076 L39.2910575,54.6731673 C39.9299312,58.7967097 46.6530792,61.4096475 51.2699402,62.7314266 C54.1149248,63.5479696 56.8201558,62.4150162 59.0711875,60.5165535 C63.2039386,56.9399648 65.1862723,51.4004372 64.2869927,45.94126 L61.6067177,28.6968913 C61.3334003,26.9228142 60.3795707,25.3333776 58.9565013,24.2806402 C57.5334319,23.2279029 55.7585834,22.7987581 54.0250832,23.0882612 L54.0250832,23.0882612 Z" id="Path" stroke="#062E4A" fill="#FFFFFF" fill-rule="nonzero"></path>
            <path d="M51.4143526,42 C51.4143526,42 52.8684657,48.1362487 52.4114587,47.9976882 C51.7491136,47.8659729 51.1069573,47.6548002 50.5003386,47.3692176" id="Path" stroke="#062E4A" stroke-linecap="round"></path>
            <path d="M59.5003386,36 C58.6747356,35.1230514 55.9660158,34.4195652 54.5003386,35.7012593" id="Path" stroke="#062E4A" stroke-linecap="round"></path>
            <circle id="Oval" fill="#062E4A" fill-rule="nonzero" cx="46.0003386" cy="41.5" r="1"></circle>
            <circle id="Oval" fill="#062E4A" fill-rule="nonzero" cx="56.0003386" cy="39.5" r="1"></circle>
            <path d="M58.5221325,20.4630349 C64.2029167,26.8003298 64.1469734,39.4203305 62.621248,35.8869288 C57.9220139,24.9194882 50.4866455,35.0879433 39.1047342,31.3361853 C32.0914832,29.0235938 39.2217065,44.6062923 36.9890617,44.9487146 C30.8709029,45.8965794 28.8213451,33.4403459 29.6910086,29.5198581 C32.6305728,16.3043402 52.7498048,14.0215245 58.5221325,20.4630349 Z" id="Path" fill="#062E4A" fill-rule="nonzero"></path>
            <circle id="Oval" fill="#062E4A" fill-rule="nonzero" cx="35.5003386" cy="16" r="9"></circle>
            <circle id="Oval" fill="#062E4A" fill-rule="nonzero" cx="25.0003386" cy="6.5" r="6.5"></circle>
            <path d="M40.5003386,40 C41.0100226,39.022753 43.5074742,37.5714372 45.5003386,38.120359" id="Path" stroke="#062E4A" stroke-linecap="round"></path>
            <ellipse id="Oval" stroke="#062E4A" stroke-linecap="round" transform="translate(52.814611, 55.244192) rotate(-3.510000) translate(-52.814611, -55.244192) " cx="52.8146106" cy="55.2441924" rx="1.87826658" ry="2.38859435"></ellipse>
            <path d="M83.6610117,57.2691056 C80.8827115,60.9894978 81.2482773,62.2601235 82.2091932,64.7556325 C83.170109,67.2511414 86.6116501,74.3818931 85.1389421,75.6372713 C83.6662341,76.8926495 81.1072734,78.1531103 79.7651246,75.129021 C78.4229758,72.1049318 77.4307258,64.0999896 75.5402283,63.5459968 C73.6497308,62.992004 71.571228,61.6451407 70.5528661,56.1763675 C69.5345042,50.7075943 83.6610117,57.2691056 83.6610117,57.2691056 Z" id="Path" stroke="#062E4A" fill="#FFFFFF" fill-rule="nonzero"></path>
            <g id="Group-3" transform="translate(88.725338, 52.627932) rotate(-11.000000) translate(-88.725338, -52.627932) translate(58.725338, 31.127932)">
                <path d="M11.0115063,26.6323579 C18.4487029,27.2433878 25.2733054,24.9154143 34.8064854,28.5260456 C41.8943515,31.2024575 47.7671548,37.8934874 48.8657741,39.9336203 C49.9643933,41.9737532 54.0551046,27.3948828 54.0551046,27.3948828 C54.0551046,27.3948828 55.0170293,-1.99515044 50.4959833,1.26199242 C45.9749372,4.51913528 34.963431,13.3159459 27.6224268,12.6493678 C20.2814226,11.9827898 8.2067364,12.614019 4.48560669,13.9471751 C-0.324016736,15.6792682 -3.63,25.4405971 11.0115063,26.6323579 Z" id="Path" stroke="#062E4A" fill="#FFFFFF" fill-rule="nonzero"></path>
                <g id="Path" transform="translate(0.000000, 1.034750)">
                    <mask id="mask-6" fill="white">
                        <use xlink:href="#path-5"></use>
                    </mask>
                    <use id="Mask" stroke="#062E4A" fill="#FFFFFF" fill-rule="nonzero" xlink:href="#path-5"></use>
                    <path d="M20.1599163,25.3350166 C18.7322176,21.5122924 19.2182427,16.5129568 22.4330962,11.2611296 L14.7579498,5.61036545 L-4.55648536,14.5586711 L1.16949791,29.9101661 L20.1599163,25.3350166 Z" fill="#062E4A" fill-rule="nonzero" mask="url(#mask-6)"></path>
                </g>
                <ellipse id="Oval" fill="#062E4A" fill-rule="nonzero" transform="translate(52.129110, 21.204896) rotate(-89.060000) translate(-52.129110, -21.204896) " cx="52.12911" cy="21.2048957" rx="20.7497817" ry="6.90560195"></ellipse>
                <g id="Group" transform="translate(46.916611, 16.184252)" fill="#FFFFFF" fill-rule="nonzero" stroke="#062E4A">
                    <path d="M7.12330544,8.51906977 C4.88050209,8.99880399 2.0909205,9.99362126 1.15937238,9.30684385 C0.227824268,8.62006645 7.21644966e-16,0.18179402 1.63020921,0.18179402 C3.52901586,0.299406433 5.41054859,0.612476526 7.24481172,1.11601329 C7.59414226,1.29780731 7.12330544,8.51906977 7.12330544,8.51906977 Z" id="Path"></path>
                    <ellipse id="Oval" stroke-width="1.00019998" transform="translate(7.596066, 5.004789) rotate(-88.854237) translate(-7.596066, -5.004789) " cx="7.59606611" cy="5.00478937" rx="3.70227226" ry="1.23049582"></ellipse>
                </g>
            </g>
            <path d="M79.9805147,97.0150768 C79.5785761,95.9344084 79.1663313,91.4333223 79.2230149,85.8668603 C79.2745455,81.3504818 76.2033218,79.1738524 74.8068425,76.1051619 C73.6731693,73.6073904 75.7807709,68.3212905 79.5373516,68.8718198 C82.9486773,69.381569 82.9950548,62.5560263 88.081125,65.9509565 C90.6215836,67.643324 89.0808186,74.586109 88.5603596,78.072794 C88.0399005,81.559479 88.0192883,84.3987824 87.8956148,86.1523199 C87.6070435,90.0875843 89.0086758,94.6906201 88.9262268,95.7356061 C88.5191351,102.240007 79.9805147,97.0150768 79.9805147,97.0150768 Z" id="Path" stroke="#062E4A" fill="#FFFFFF" fill-rule="nonzero"></path>
            <path d="M93.3014148,136.287551 C96.0963725,122.091928 93.4461537,92.873609 91.0305118,90.507672 C88.6148698,88.141735 73.3873418,87.7307035 75.7480828,95.5202504 C78.1088237,103.309797 74.5751988,125.986702 78.5829683,139.019406 C84.85665,159.435638 89.8825827,153.656135 93.3014148,136.287551 Z" id="Path" stroke="#062E4A" fill="#FFFFFF" fill-rule="nonzero"></path>
        </g>
    </g>
</svg>