<?xml version="1.0" encoding="UTF-8"?>
<svg width="11px" height="16px" viewBox="0 0 11 16" version="1.1" xmlns="http://www.w3.org/2000/svg" xmlns:xlink="http://www.w3.org/1999/xlink">
    <!-- Generator: Sketch 57.1 (83088) - https://sketch.com -->
    <title>Group 2</title>
    <desc>Created with Sketch.</desc>
    <g id="General-design" stroke="none" stroke-width="1" fill="none" fill-rule="evenodd">
        <g id="Kombooty" transform="translate(-569.000000, -252.000000)" fill-rule="nonzero">
            <g id="Group-2" transform="translate(569.000000, 252.000000)">
                <path d="M3.79259259,3.5971226e-14 C5.25446465,3.5971226e-14 6.46809428,0.441319865 7.3783165,1.28258586 L6.28880808,2.71687542 C5.54408081,2.02731313 4.55111111,1.71011448 3.65468013,1.71011448 C2.7720404,1.71011448 2.30313805,2.09626936 2.30313805,2.64791919 C2.30313805,3.26852525 3.07544781,3.46160269 4.13737374,3.70984512 C5.65441077,4.05462626 7.58518519,4.50973737 7.58518519,6.55084175 C7.58518519,7.99087548 6.70628123,9.12783887 4.89659537,9.42565986 L4.89659143,7.63862982 C5.36772734,7.44827059 5.59924579,7.10603681 5.59924579,6.75771044 C5.59924579,6.06814815 4.79935354,5.83369697 3.73742761,5.58545455 C2.23418182,5.2406734 0.303407407,4.82693603 0.303407407,2.7720404 C0.303407407,1.24121212 1.627367,3.5971226e-14 3.79259259,3.5971226e-14 Z M1.07571717,6.55084175 C1.30138282,6.78611019 1.57050999,7.00800585 1.87902495,7.19732393 L1.87815153,9.19332474 C1.11218354,8.93581023 0.491975254,8.53227155 4.54747351e-13,8.0402963 L1.07571717,6.55084175 Z" id="Combined-Shape" fill="#4DCDB1"></path>
                <polygon id="H" fill="#4A4A4A" points="8.76311333 15.7004309 8.76311333 11.8388821 4.41887091 11.8388821 4.41887091 15.7004309 2.46051401 15.7004309 2.46051401 6.50166994 4.41887091 6.50166994 4.41887091 10.1149763 8.76311333 10.1149763 8.76311333 6.50166994 10.7352615 6.50166994 10.7352615 15.7004309"></polygon>
            </g>
        </g>
    </g>
</svg>