<?xml version="1.0" encoding="UTF-8"?>
<svg width="26px" height="37px" viewBox="0 0 26 37" version="1.1" xmlns="http://www.w3.org/2000/svg" xmlns:xlink="http://www.w3.org/1999/xlink">
    <!-- Generator: Sketch 57.1 (83088) - https://sketch.com -->
    <title>Group 4</title>
    <desc>Created with Sketch.</desc>
    <g id="General-design" stroke="none" stroke-width="1" fill="none" fill-rule="evenodd">
        <g id="About-me-landing" transform="translate(-100.000000, -82.000000)">
            <g id="Group-4" transform="translate(94.000000, 81.000000)">
                <g id="Group-3" transform="translate(6.640000, 1.336000)" fill-rule="nonzero">
                    <path d="M8.8,-5.32907052e-15 C12.192,-5.32907052e-15 15.008,1.024 17.12,2.976 L14.592,6.304 C12.864,4.704 10.56,3.968 8.48,3.968 C6.432,3.968 5.344,4.864 5.344,6.144 C5.344,7.584 7.136,8.032 9.6,8.608 C13.12,9.408 17.6,10.464 17.6,15.2 C17.6,18.5415863 15.5603532,21.1798461 11.3606586,21.8706365 L11.3602422,17.7245656 C12.4543527,17.2829835 12.992,16.4885661 12.992,15.68 C12.992,14.08 11.136,13.536 8.672,12.96 C5.184,12.16 0.704,11.2 0.704,6.432 C0.704,2.88 3.776,-5.32907052e-15 8.8,-5.32907052e-15 Z M2.496,15.2 C3.01950769,15.7457846 3.64381846,16.2605529 4.35948575,16.6997711 L4.35867885,21.3316486 C2.58103463,20.7341463 1.14170341,19.7977034 -1.46371804e-12,18.656 L2.496,15.2 Z" id="Combined-Shape" fill="#4DCDB1"></path>
                    <polygon id="H" fill="#4A4A4A" points="20.3331614 36.429906 20.3331614 27.469906 10.2531614 27.469906 10.2531614 36.429906 5.7091614 36.429906 5.7091614 15.085906 10.2531614 15.085906 10.2531614 23.469906 20.3331614 23.469906 20.3331614 15.085906 24.9091614 15.085906 24.9091614 36.429906"></polygon>
                </g>
                <rect id="Rectangle" x="0" y="0" width="40" height="40"></rect>
            </g>
        </g>
    </g>
</svg>